<?xml version="1.0" standalone="no"?>
<!DOCTYPE svg PUBLIC "-//W3C//DTD SVG 1.1//EN" "http://www.w3.org/Graphics/SVG/1.1/DTD/svg11.dtd" >
<!--
2013-9-30: Created.
-->
<svg>
<metadata>
Created by iconfont
</metadata>
<defs>

<font id="iconfont" horiz-adv-x="1024" >
  <font-face
    font-family="iconfont"
    font-weight="500"
    font-stretch="normal"
    units-per-em="1024"
    ascent="896"
    descent="-128"
  />
    <missing-glyph />
    
    <glyph glyph-name="icon" unicode="&#58900;" d="M678.901753-22.077575l-93.446275 254.469646L231.202221 232.39207l-93.975325-254.469646L75.456041-22.077575 383.779222 795.715993l53.851489 0 304.626999-817.793568L678.901753-22.077575zM428.127266 662.144858c-4.223185 11.259438-7.572466 22.5199-10.030447 33.788547-2.821255 9.503445-5.634324 19.006889-8.447393 28.509311l-2.64013 0c-6.335289-25.342178-12.497639-45.75816-18.47784-61.241806L250.73509 284.132478l315.713498 0L428.127266 662.144858zM881.107057-22.077575 881.107057 795.715993l56.491619 0 0-817.793568L881.107057-22.077575z"  horiz-adv-x="1024" />

    
    <glyph glyph-name="weixinliaotian" unicode="&#58897;" d="M1023.998 507.246c0 190.797-196.8 346.022-438.699 346.022-127.601 0-248.293-43.69-331.902-119.995 39.512 8.591 80.397 13.726 121.598 15.271 62.325 32.168 135.04 49.17 210.304 49.17 208.512 0 378.152-130.304 378.152-290.467 0-33.613-7.42-66.566-22.056-97.951 7.986-29.683 11.88-60.371 11.574-91.105C999.452 374.404 1024 439.706 1024 507.246L1023.998 507.246zM438.717 404.19c-34.003 0-61.667-25.438-61.667-56.705s27.664-56.704 61.667-56.704c34.022 0 61.701 25.437 61.701 56.704S472.738 404.19 438.717 404.19L438.717 404.19zM218.801 404.19c-34.005 0-61.67-25.438-61.67-56.705s27.665-56.704 61.67-56.704c34.02 0 61.698 25.437 61.698 56.704S252.821 404.19 218.801 404.19zM658.652 404.19c-34.021 0-61.698-25.438-61.698-56.705s27.677-56.704 61.698-56.704c34.005 0 61.669 25.437 61.669 56.704S692.657 404.19 658.652 404.19zM438.688 693.503C196.795 693.503 0 538.28 0 347.485c0-189.429 182.812-311.781 350.065-338.644l64.009-82.503c11.956-15.536 37.299-15.417 49.292 0.001l63.98 82.533c167.263 26.864 350.045 149.166 350.045 338.613C877.389 538.28 680.589 693.503 438.688 693.503L438.688 693.503zM505.532 61.886c-8.071-1.077-15.411-5.214-20.142-11.348l-46.702-60.169-46.687 60.135c-4.727 6.117-12.072 10.254-20.155 11.351C191.468 86.653 60.55 206.777 60.55 347.484c0 160.164 169.631 290.468 378.137 290.468 208.514 0 378.155-130.302 378.155-290.468C816.842 206.764 685.918 86.652 505.532 61.886L505.532 61.886z"  horiz-adv-x="1024" />

    
    <glyph glyph-name="iconset0114" unicode="&#58893;" d="M512 298.666667c-46.933333 0-85.333333-38.4-85.333333-85.333333 0-21.333333 8.533333-42.666667 21.333333-55.466667 0-4.266667 0-4.266667 0-8.533333 0-34.133333 29.866667-64 64-64 34.133333 0 64 29.866667 64 64 0 4.266667 0 4.266667 0 8.533333 12.8 12.8 21.333333 34.133333 21.333333 55.466667C597.333333 264.533333 558.933333 298.666667 512 298.666667zM533.333333 183.466667l0-25.6c0-12.8-8.533333-21.333333-21.333333-21.333333-12.8 0-21.333333 8.533333-21.333333 21.333333l0 25.6c-12.8 8.533333-21.333333 21.333333-21.333333 34.133333 0 21.333333 17.066667 42.666667 42.666667 42.666667 21.333333 0 42.666667-17.066667 42.666667-42.666667C554.666667 200.533333 546.133333 187.733333 533.333333 183.466667zM763.733333 469.333333 763.733333 593.066667c0 136.533333-110.933333 251.733333-251.733333 251.733333-136.533333 0-251.733333-110.933333-251.733333-251.733333L260.266667 469.333333c-46.933333 0-85.333333-38.4-85.333333-85.333333l0-375.466667c0-46.933333 38.4-85.333333 85.333333-85.333333l499.2 0c46.933333 0 85.333333 38.4 85.333333 85.333333L844.8 384C844.8 430.933333 806.4 469.333333 763.733333 469.333333zM302.933333 593.066667c0 115.2 93.866667 209.066667 209.066667 209.066667 115.2 0 209.066667-93.866667 209.066667-209.066667L721.066667 469.333333 302.933333 469.333333 302.933333 593.066667zM802.133333 8.533333c0-21.333333-17.066667-42.666667-42.666667-42.666667L260.266667-34.133333c-21.333333 0-42.666667 17.066667-42.666667 42.666667L217.6 384c0 21.333333 17.066667 42.666667 42.666667 42.666667l456.533333 0 42.666667 0c21.333333 0 42.666667-17.066667 42.666667-42.666667L802.133333 8.533333z"  horiz-adv-x="1024" />

    
    <glyph glyph-name="shanchu" unicode="&#58927;" d="M512.625752 834.4072c-247.332085 0-447.833585-200.502523-447.833585-447.833585 0-247.331062 200.502523-447.832562 447.833585-447.832562 247.331062 0 447.832562 200.5015 447.832562 447.832562S759.956813 834.4072 512.625752 834.4072zM356.794637 153.521768l-72.894194 72.454172 159.40143 160.369477L282.932396 545.746848l72.454172 72.894194 160.370501-159.40143 159.40143 160.369477 72.894194-72.455195L588.651262 386.785439l160.370501-159.402453-72.455195-72.895217L516.19709 313.889199 356.794637 153.521768z"  horiz-adv-x="1024" />

    
    <glyph glyph-name="tixing" unicode="&#59084;" d="M925.007405 189.506331c-9.007141 8.121981-23.219841 18.370393-42.243103 30.456662-5.865591 3.725858-9.318226 10.111289-9.238408 17.07898l0.031722 2.539846c0.60989 51.78134 1.529843 130.034589-12.19167 209.543434-16.686031 96.679923-51.42216 172.286901-103.242386 224.720088-40.829917 41.314964-92.434226 68.674079-154.064888 81.818447-3.056616 19.094894-12.19781 36.341696-26.516934 49.569976-17.135262 15.8285-40.165792 24.546046-64.846914 24.546046-24.679076 0-47.709605-8.718569-64.844867-24.546046-14.31503-13.222139-23.455201-30.463826-26.514887-49.552579-61.343113-13.07069-112.581078-40.223097-152.97302-81.204463-117.15014-118.866225-114.199948-322.050834-112.614847-431.207929l0.085958-5.973038c0.099261-6.963599-3.508917-13.56597-9.417487-17.231453-19.403932-12.038174-33.983999-22.151509-43.334971-30.05655-24.833595-20.99415-39.076994-51.64831-39.076994-84.102467 0-28.354791 23.067368-51.42216 51.42216-51.42216l277.239232 0c0.540306-65.73412 54.174853-119.045303 120.032794-119.045303s119.492488 53.312206 120.032794 119.045303l275.389094 0c29.375028 0 53.272297 23.898293 53.272297 53.272297C961.390034 138.85779 948.130032 168.65442 925.007405 189.506331zM512.693802 789.764444c14.58723 0 27.973098-4.945639 37.694507-13.925151 4.253884-3.929496 7.624654-8.439206 10.070356-13.418614-15.392572 1.550309-31.31317 2.334161-47.76384 2.334161-16.395412 0-32.256658-0.775666-47.586808-2.308579C473.319026 778.893862 491.085668 789.764444 512.693802 789.764444zM512.695848-24.54579c-43.792389 0-79.464843 35.363416-80.005149 79.029938l160.010297 0C592.160691 10.816602 556.488237-24.54579 512.695848-24.54579zM908.117736 94.499513 115.422799 94.499513c-6.28924 0-11.406794 5.117554-11.406794 11.406794 0 20.652366 9.073656 40.169885 24.896017 53.543474 7.752568 6.553253 21.099551 15.755846 38.59911 26.614148 17.772782 11.026124 28.628014 30.875195 28.331255 51.798736l-0.085958 5.986341c-1.500167 103.306854-4.29277 295.599392 101.104699 402.537959 51.240011 51.990095 123.857912 78.352509 215.832673 78.352509 92.148723 0 165.147294-26.586518 216.96752-79.022775 45.958728-46.502104 77.003791-114.936729 92.27152-203.39848 13.098319-75.896574 12.20395-151.944598 11.611455-202.266703l-0.029676-2.541893c-0.246617-20.922519 10.143011-40.107463 27.78788-51.321876 16.656355-10.584056 29.764907-19.958564 36.906561-26.39823 14.722306-13.276375 23.165606-32.242332 23.165606-52.033074C921.375691 100.446969 915.427212 94.499513 908.117736 94.499513zM450.672236 682.723545c-24.200168 0-58.362222-22.532179-82.263585-43.620473-19.808138-17.477047-54.381561-53.168943-63.362096-95.835695-2.275833-10.812253 4.644787-21.423939 15.45704-23.698748 1.38965-0.292666 2.774183-0.433882 4.140297-0.433882 9.260921 0 17.575284 6.467295 19.558451 15.890922 4.823865 22.910802 23.295566 49.909713 50.681286 74.070996 26.590612 23.462365 49.811476 33.610492 55.788607 33.610492 11.048637 0 20.007683 8.958022 20.007683 20.007683C470.679919 673.765523 461.720873 682.723545 450.672236 682.723545z"  horiz-adv-x="1024" />

    
    <glyph glyph-name="quanping" unicode="&#59097;" d="M896 417.28C878.336 417.28 864 431.616 864 449.28L864 695.808 594.624 426.496C582.656 414.528 563.264 414.528 551.296 426.496 539.328 438.464 539.328 457.856 551.296 469.824L818.752 737.28 576 737.28C558.336 737.28 544 751.616 544 769.28 544 786.944 558.336 801.28 576 801.28L893.056 801.28C897.728 801.984 901.568 800.768 906.112 799.232 907.584 798.72 908.992 798.208 910.336 797.504 913.152 796.096 916.48 796.352 918.784 793.984 920.448 792.32 920.064 789.888 921.28 787.968 924.288 783.936 926.208 779.264 927.04 774.144 927.104 773.248 927.552 772.544 927.488 771.712 927.552 770.88 928 770.112 928 769.28L928 449.28C928 431.616 913.664 417.28 896 417.28ZM205.248 33.28 448 33.28C465.664 33.28 480 18.944 480 1.28 480-16.384 465.664-30.72 448-30.72L130.944-30.72C126.272-31.424 122.432-30.208 117.888-28.672 116.416-28.16 115.008-27.648 113.664-26.944 110.848-25.536 107.52-25.792 105.216-23.424 103.552-21.76 103.936-19.328 102.72-17.408 99.712-13.376 97.792-8.704 96.96-3.584 96.896-2.688 96.448-1.984 96.512-1.152 96.448-0.32 96 0.448 96 1.28L96 321.28C96 338.944 110.336 353.28 128 353.28 145.664 353.28 160 338.944 160 321.28L160 74.752 429.376 344.064C441.344 356.032 460.736 356.032 472.704 344.064 484.672 332.096 484.672 312.704 472.704 300.736L205.248 33.28Z"  horiz-adv-x="1024" />

    
    <glyph glyph-name="shiyongbangzhu" unicode="&#59003;" d="M202.322 554.322c2.444 59.116 9.678 100.615 23.077 134.598 13.4 33.982 35.98 65.008 67.742 93.081 31.762 28.072 67.245 48.757 106.451 62.054 39.206 13.298 79.653 19.946 121.34 19.946 88.338 0 160.546-24.871 216.625-74.612 56.079-49.742 84.119-116.473 84.119-200.197 0-42.354-8.437-78.798-25.311-109.333-16.873-30.534-53.598-71.903-110.174-124.107-61.538-58.114-99.256-100.96-113.152-128.54-13.896-27.579-20.843-73.381-20.843-137.405l-102.729 0c1.985 58.114 11.414 107.116 28.288 147.008 16.873 39.892 53.846 88.894 110.918 147.008 57.072 58.114 92.804 99.236 107.196 123.368 14.393 24.132 21.588 54.42 21.588 90.864 0 55.159-18.114 99.483-54.342 132.972-36.229 33.489-85.111 50.234-146.65 50.234-133.003 0-209.322-72.279-221.233-226.939l-92.911 0zM573.936-96l-123.871 0 0 123.871 123.871 0 0-123.871z"  horiz-adv-x="1024" />

    
    <glyph glyph-name="sousuo" unicode="&#58947;" d="M888.703059 48.841637 733.373365 204.173378c50.040696 59.650565 80.190367 136.551002 80.190367 220.507136 0 189.613522-153.703661 343.318206-343.31616 343.318206-189.616592 0-343.31923-153.703661-343.31923-343.318206s153.703661-343.318206 343.31923-343.318206c85.053118 0 162.867368 30.94171 222.838228 82.163301l155.141406-155.141406c11.174504-11.17655 29.300326-11.17655 40.47483 0C899.859144 19.559731 899.859144 37.665087 888.703059 48.841637zM470.248595 138.583544c-158.006663 0-286.10004 128.090307-286.10004 286.097994 0 158.006663 128.093377 286.099017 286.10004 286.099017s286.079574-128.093377 286.079574-286.099017C756.32817 266.673851 628.254236 138.583544 470.248595 138.583544z"  horiz-adv-x="1024" />

    
    <glyph glyph-name="kehu" unicode="&#58917;" d="M1023.445368 34.340365c0 149.362796-89.360214 277.04685-215.687364 329.140299 61.193711 42.330084 101.504812 114.445542 101.504812 196.358133 0 111.830995-75.128071 205.427696-175.939081 229.785453-0.958838 0.231267-1.820462 0.099261-2.681062-0.231267-1.158383 0.099261-2.251274 0.364297-3.408633 0.364297-21.545712 0-39.020712-18.10331-39.020712-40.410362 0-20.156062 14.297634-36.703947 32.929993-39.748283 3.309372-1.423419 7.645121-2.482541 7.810896-2.548032 58.414411-20.519336 100.446713-77.677127 100.446713-145.093563 0-75.160817-52.29197-137.64594-121.263831-150.718677-0.099261 0-0.164752-0.198521-0.265036-0.231267-22.935362-1.52268-41.170678-21.049409-41.170678-45.176922 0-24.491811 18.765389-44.349067 42.197054-45.308929 0.165776-0.066515 0.297782-0.330528 0.463558-0.364297 138.672316-14.628162 236.999762-136.952138 236.999762-285.817608 0-22.042016 17.243733-39.914058 38.524408-39.914058 20.784372 0 37.564547 17.044188 38.391379 38.324864 0.032746 0.231267 0.165776 0.397043 0.165776 0.595564 0 0.065492-0.033769 0.132006-0.033769 0.231267l0 0c0 0.265036 0.033769 0.497327 0.033769 0.728594L1023.443321 34.340365 1023.445368 34.340365 1023.445368 34.340365 1023.445368 34.340365 1023.445368 34.340365 1023.445368 34.340365zM561.589418 356.828151c73.042573 50.702776 121.197316 136.918369 121.197316 234.816027 0 156.01531-122.157177 282.508235-272.810363 282.508235-150.686954 0-272.844132-126.492926-272.844132-282.508235 0-97.930403 48.154743-184.113251 121.197316-234.816027C107.313098 294.442288 0.511653 141.703605 0.511653-36.98203c0-10.061147 0.562818-19.956517 1.291412-29.819143l0.065492 0c0-21.744233 17.044188-39.35124 38.027082-39.35124 21.016663 0 38.028105 17.607006 38.028105 39.35124 0 1.223874-0.231267 2.38328-0.364297 3.607154-0.727571 8.671497-1.356904 17.34197-1.356904 26.211988 0 190.865026 149.428288 345.588923 333.741084 345.588923 184.344518 0 333.773829-154.723897 333.773829-345.588923 0-9.200546-0.629333-18.269086-1.423419-27.238364 0-0.463558-0.13303-0.893346-0.13303-1.356904 0-0.164752 0.032746-0.297782 0.032746-0.429789 0-0.265036 0-0.529049-0.032746-0.76134l0.13303 0c0.62831-21.181415 17.309224-38.192857 37.894052-38.192857 20.585851 0 37.266765 17.011442 37.895075 38.192857l0.099261 0c0.694825 9.829879 1.191128 19.757996 1.191128 29.786397C819.407322 141.703605 712.606901 294.442288 561.589418 356.828151L561.589418 356.828151 561.589418 356.828151 561.589418 356.828151zM409.976372 388.732791c-108.256586 0-195.994859 90.848101-195.994859 202.911386 0 112.063285 87.738273 202.912409 195.994859 202.912409 108.22384 0 195.962114-90.848101 195.962114-202.912409C605.938486 479.581915 518.200212 388.732791 409.976372 388.732791L409.976372 388.732791 409.976372 388.732791 409.976372 388.732791z"  horiz-adv-x="1039" />

    
    <glyph glyph-name="gift" unicode="&#58888;" d="M1028.725 512.383c0 40.487-33.208 73.402-74.222 73.402h-57.68c24.119 23.234 39.138 55.684 39.138 91.708 0.001 70.882-58.145 128.383-129.846 128.383-72.994 0-120.58-71.643-149.271-139.234-15.372 6.688-34.206 10.852-54.802 10.852-20.538 0-39.37-4.105-54.803-10.852-28.695 67.591-76.282 139.234-149.271 139.234-60.787 0-111.425-41.483-125.562-97.226 11.792-2.405 23.761-5.573 35.906-9.445 9.798 40.253 46.296 70.355 89.951 70.355 53.392 0 93.174-63.079 118.522-125.451-4.047-5.632-6.16-11.676-6.863-18.072 1.993 0.354 3.873 0.707 5.516 1.235-2.408-0.766-3.993-1.763-5.81-2.815-0.059-0.707-0.354-1.294-0.354-2.055 0-11.796 6.751-22.53 17.543-31.451-0.176-0.059-0.233-0.174-0.408-0.232-24.115-7.512-70.882-6.455-156.545 40.37-190.575 104.262-274.658 4.046-275.6 2.99-6.455-7.861-5.219-19.418 2.7-25.758 7.924-6.338 19.597-5.219 26.111 2.7 0.703 0.881 65.071 77.569 228.774-11.97 58.907-32.273 108.959-48.406 149.329-48.406 8.155 0 15.842 0.936 23.174 2.172 0.587-1.235 1.411-2.525 1.997-3.698h57.148v-146.746h-371.062v110.074c0 20.301 16.604 36.671 37.144 36.671h123.157c-12.557 5.812-25.404 12.087-38.668 19.361-12.378 6.75-24.406 12.439-36.143 17.369h-48.346c-41.014 0-74.227-32.916-74.227-73.402v-146.746h55.684v-330.164c0-40.549 33.211-73.407 74.226-73.407h593.672c41.014 0 74.227 32.858 74.227 73.407v329.985h55.858l-0.296 146.866zM583.558-1.203h-278.295c-20.481 0-37.083 16.371-37.083 36.671v330.17h315.378v-366.842zM694.806 622.399c0 7.745-2.698 15.078-7.508 21.707 25.346 62.372 65.071 125.451 118.522 125.451 51.166 0 92.767-41.136 92.767-91.711 0-50.518-41.601-91.706-92.767-91.706h-134.543c14.495 9.678 23.529 22.352 23.529 36.26v0zM602.042 604.090c-7.454 0-14.612 0.528-21.183 1.41-1.76 3.171-4.163 5.985-7.686 7.686-5.806 2.874-12.202 2.055-17.429-0.939-5.864 2.937-9.33 6.398-9.33 10.152 0 10.147 24.939 18.362 55.627 18.362 30.745 0 55.684-8.273 55.684-18.362 0-10.093-24.939-18.308-55.684-18.308v0zM935.962 35.47c0-20.301-16.603-36.671-37.083-36.671h-278.293v366.842h315.377v-330.17zM991.705 402.31h-371.061v146.745h333.92c20.534 0 37.142-16.371 37.142-36.671v-110.074zM991.705 402.31z"  horiz-adv-x="1140" />

    
    <glyph glyph-name="xiazai1" unicode="&#58935;" d="M895.778198 33.713079c0-18.531052-15.023158-33.55421-33.55421-33.55421L161.35441 0.158868c-18.531052 0-33.55421 15.023158-33.55421 33.55421l0 0c0 18.531052 15.023158 33.55421 33.55421 33.55421l700.869578 0C880.756063 67.267289 895.778198 52.24413 895.778198 33.713079L895.778198 33.713079zM511.715009 128.334109c-18.531052 0-33.55421 15.023158-33.55421 33.55421L478.160799 734.025978c0 18.532075 15.023158 33.55421 33.55421 33.55421l0 0c18.531052 0 33.55421-15.023158 33.55421-33.55421l0-572.137659C545.269219 143.357268 530.246061 128.334109 511.715009 128.334109L511.715009 128.334109zM535.441387 138.379906c-13.103436-13.103436-34.349319-13.103436-47.452755 0L236.159116 390.209422c-13.103436 13.103436-13.103436 34.349319 0 47.452755l0 0c13.103436 13.103436 34.349319 13.103436 47.452755 0l251.829516-251.829516C548.544823 172.729226 548.544823 151.484366 535.441387 138.379906L535.441387 138.379906zM487.988632 138.38093c-13.103436 13.103436-13.103436 34.349319 0 47.452755l251.829516 251.829516c13.103436 13.103436 34.349319 13.103436 47.452755 0l0 0c13.103436-13.103436 13.103436-34.349319 0-47.452755L535.441387 138.379906C522.336928 125.276471 501.092068 125.276471 487.988632 138.38093L487.988632 138.38093z"  horiz-adv-x="1024" />

    
    <glyph glyph-name="yuyinzuo" unicode="&#58923;" d="M261.283306 617.344612C243.083715 632.264348 214.939304 631.009044 198.430798 614.519916 181.939876 598.030787 183.321704 572.547588 201.539912 557.591086 243.229552 523.356475 267.156076 474.349191 267.156076 423.163246 267.156076 372.050835 243.174733 323.006786 201.321674 288.660824 191.612674 280.702511 186.703873 269.771387 186.703873 258.784586 186.703873 249.145531 190.503901 239.432943 198.249794 231.714136 214.758299 215.241816 242.902711 213.986512 261.102301 228.944064 321.500408 278.559565 356.153686 349.337708 356.153686 423.163246 356.152655 497.080174 321.571777 567.857267 261.283306 617.344612L261.283306 617.344612 261.283306 617.344612ZM429.96877 750.148434C412.642132 765.935853 384.479103 766.028294 367.061445 750.314407 349.626204 734.655145 349.571386 709.081606 366.879407 693.312044 446.023217 621.204014 489.638728 525.27672 489.638728 423.164295 489.638728 321.235702 445.967364 225.326265 366.661169 153.089028 358.043359 145.241013 353.715837 134.955923 353.715837 124.689742 353.715837 114.348977 358.07956 103.970396 366.82459 96.123431 384.259831 80.409545 412.405277 80.483077 429.749498 96.271547 525.765888 183.686934 578.63634 299.796787 578.63634 423.164295 578.637375 546.733492 525.820707 662.862254 429.96877 750.148434L429.96877 750.148434 429.96877 750.148434ZM597.200005 883.578333C580.200206 899.625216 552.038212 900.160954 534.293714 884.741197 516.530599 869.322491 515.965869 843.803576 532.984287 827.756693 648.507626 718.662886 712.105866 574.984664 712.105866 423.181104 712.105866 271.672726 648.399024 128.049126 532.766049 18.732622 524.512314 10.940283 520.384411 0.895749 520.384411-9.149835 520.384411-19.730105 524.966372-30.329284 534.093059-38.250831 551.819973-53.650626 580.000586-53.097032 597.017967-37.03229 728.615406 87.352062 801.08486 250.770597 801.08486 423.163246 801.121061 595.88889 728.687807 759.380961 597.200005 883.578333L597.200005 883.578333 597.200005 883.578333Z"  horiz-adv-x="1024" />

    
    <glyph glyph-name="rizhi" unicode="&#58908;" d="M346.396444 585.159111c18.375111 0 33.223111 14.848 33.223111 33.223111L379.619556 751.388444c0 18.375111-14.904889 33.223111-33.223111 33.223111-18.375111 0-33.223111-14.848-33.223111-33.223111l0-132.949333C313.173333 600.007111 328.021333 585.159111 346.396444 585.159111zM512.568889 585.159111c18.375111 0 33.223111 14.848 33.223111 33.223111L545.792 751.388444c0 18.375111-14.848 33.223111-33.223111 33.223111-18.375111 0-33.223111-14.904889-33.223111-33.223111l0-132.949333C479.345778 600.007111 494.250667 585.159111 512.568889 585.159111zM412.899556 720.896l33.223111 0 0-66.446222-33.223111 0 0 66.446222ZM579.128889 720.896l33.223111 0 0-66.446222-33.223111 0 0 66.446222ZM911.36 84.878222l0 539.875556c0.113778 55.125333-44.657778 99.726222-99.669333 99.726222L745.244444 724.48l0-66.446222 66.446222 0c18.318222 0 33.336889-14.904889 33.336889-33.223111l0-539.932444c0-18.318222-15.018667-33.28-33.336889-33.28L213.447111 51.598222c-18.261333 0-33.223111 14.961778-33.223111 33.28L179.712 84.878222l0.512 539.875556c0 18.318222 14.904889 33.223111 33.223111 33.223111L279.893333 657.976889 279.893333 724.48 213.447111 724.48C158.435556 724.48 113.777778 679.879111 113.777778 624.753778l0-539.875556c0-55.239111 44.657778-99.726222 99.669333-99.726222l598.243556 0c53.418667 0 96.654222 41.927111 99.271111 94.776889 0.056889 0.284444 0.398222 0.625778 0.398222 0.910222l0 2.958222c0 0.398222 0.113778 0.739556 0.113778 1.137778L911.36 84.935111zM678.798222 585.159111c18.318222 0 33.223111 14.848 33.223111 33.223111L712.021333 751.388444c0 18.375111-14.904889 33.223111-33.223111 33.223111s-33.223111-14.848-33.223111-33.223111l0-132.949333C645.575111 600.007111 660.309333 585.159111 678.798222 585.159111zM312.604444 451.697778l398.848 0c18.204444 0 33.223111 14.904889 33.223111 33.223111 0 18.375111-15.018667 33.223111-33.223111 33.223111L312.604444 518.144c-18.375111 0-33.223111-14.848-33.223111-33.223111C279.381333 466.602667 294.229333 451.697778 312.604444 451.697778zM711.452444 354.133333 312.604444 354.133333c-18.375111 0-33.223111-14.904889-33.223111-33.223111s14.848-33.223111 33.223111-33.223111l398.848 0c18.204444 0 33.223111 14.904889 33.223111 33.223111S729.656889 354.133333 711.452444 354.133333zM711.452444 183.694222 312.604444 183.694222c-18.375111 0-33.223111-14.904889-33.223111-33.109333 0-18.375111 14.848-33.336889 33.223111-33.336889l398.848 0c18.204444 0 33.223111 14.961778 33.223111 33.336889C744.675556 168.846222 729.656889 183.694222 711.452444 183.694222z"  horiz-adv-x="1024" />

    
    <glyph glyph-name="gerenzhongxin1" unicode="&#58910;" d="M630.35904 296.94464C729.63584 342.02112 798.72 441.94816 798.72 558.08c0 158.35136-128.36864 286.72-286.72 286.72S225.28 716.43136 225.28 558.08c0-116.13184 69.08416-216.05888 168.36096-261.13536-174.6176-46.27968-308.48-192.52224-336.80384-373.74464l41.9584 0c35.10272 197.8624 207.8208 348.16 415.76448 348.16s380.66176-150.2976 415.76448-348.16l36.8384 0C938.84416 104.42752 804.98176 250.66496 630.35904 296.94464zM512 312.32c-135.7312 0-245.76 110.0288-245.76 245.76s110.0288 245.76 245.76 245.76 245.76-110.0288 245.76-245.76S647.7312 312.32 512 312.32z"  horiz-adv-x="1024" />

    
    <glyph glyph-name="huodong" unicode="&#58918;" d="M315.326984 777.346032c-6.501587-1.625397-16.253968-4.87619-27.631746-11.377778-19.504762-9.752381-40.634921-22.755556-58.514286-40.634921-47.136508-43.885714-78.019048-102.4-84.520635-178.79365 0-9.752381 6.501587-16.253968 14.628572-17.879366 8.126984-1.625397 16.253968 6.501587 17.879365 14.628572 4.87619 68.266667 32.507937 120.279365 74.768254 157.663492 16.253968 14.628571 34.133333 26.006349 52.012698 35.75873 6.501587 3.250794 11.377778 4.87619 16.253969 8.126984 3.250794 1.625397 4.87619 1.625397 6.501587 1.625397 8.126984 3.250794 13.003175 11.377778 11.377778 19.504762-1.625397 8.126984-14.628571 14.628571-22.755556 11.377778zM525.003175 229.587302c3.250794 3.250794 8.126984 6.501587 11.377777 9.752381l-13.003174-8.126985s0-1.625397 1.625397-1.625396zM685.91746 514.031746c0 52.012698-9.752381 100.774603-26.006349 144.660317-3.250794 9.752381-8.126984 21.130159-13.003174 30.88254C591.644444 811.479365 477.866667 896 347.834921 896 159.288889 896 8.126984 725.333333 8.126984 514.031746c0-198.298413 134.907937-360.838095 307.2-380.342857-17.879365-34.133333-19.504762-69.892063 1.625397-105.650794 30.88254-52.012698 35.75873-63.390476 35.75873-79.644444 0-13.003175-4.87619-24.380952-17.879365-40.634921-6.501587-6.501587-4.87619-17.879365 1.625397-22.755555 6.501587-6.501587 17.879365-4.87619 22.755555 1.625396 17.879365 21.130159 26.006349 40.634921 26.00635 61.76508 0 26.006349-6.501587 39.009524-40.634921 97.523809-14.628571 26.006349-13.003175 52.012698 1.625397 76.393651 1.625397 4.87619 4.87619 8.126984 6.501587 11.377778 71.51746 1.625397 136.533333 26.006349 190.171429 69.892063 8.126984 6.501587 16.253968 14.628571 24.380952 21.130159 73.142857 68.266667 118.653968 172.292063 118.653968 289.320635z m-149.536508-274.692063c-3.250794-3.250794-8.126984-6.501587-11.377777-9.752381-50.387302-40.634921-110.526984-65.015873-177.168254-65.015873C178.793651 164.571429 40.634921 320.609524 40.634921 514.031746S178.793651 863.492063 347.834921 863.492063c169.04127 0 307.2-156.038095 307.2-349.460317-1.625397-112.152381-47.136508-211.301587-118.653969-274.692063zM750.933333 86.552381c1.625397 1.625397 1.625397 3.250794 3.250794 4.87619 144.660317 4.87619 261.688889 141.409524 261.688889 308.825397 0 170.666667-120.279365 310.450794-268.190476 310.450794-34.133333 0-68.266667-8.126984-99.149207-21.130159 4.87619-9.752381 8.126984-19.504762 13.003175-30.88254 27.631746 13.003175 56.888889 19.504762 86.146032 19.504762 130.031746 0 235.68254-123.530159 235.682539-277.942857 0-154.412698-105.650794-277.942857-235.682539-277.942857-69.892063 0-136.533333 37.384127-180.419048 99.149206-8.126984-8.126984-16.253968-14.628571-24.380952-21.130158 43.885714-60.139683 105.650794-99.149206 173.91746-107.276191-11.377778-19.504762-13.003175-42.260317 3.250794-63.390476 19.504762-26.006349 22.755556-30.88254 22.755555-37.384127 0-3.250794-3.250794-8.126984-9.752381-14.628571-6.501587-6.501587-6.501587-16.253968 0-22.755556 6.501587-6.501587 16.253968-6.501587 22.755556 0 13.003175 13.003175 19.504762 24.380952 19.504762 39.009524 0 16.253968-3.250794 24.380952-29.257143 56.888889-8.126984 9.752381-6.501587 19.504762 1.625397 30.882539 0 1.625397 3.250794 4.87619 3.250793 4.876191z"  horiz-adv-x="1024" />

    
    <glyph glyph-name="dvt-home" unicode="&#58956;" d="M230.565 176.445c0.002 45.106-0.131 90.213 0.127 135.318 0.046 7.895 0.773 16.049 2.903 23.6 2.377 8.425 9.109 13.091 18.195 12.731 9.031-0.359 15.452-5.481 17.425-13.943 1.787-7.667 1.905-15.838 1.918-23.788 0.13-77.843 0.566-155.695-0.263-233.53-0.201-18.78 5.221-26.132 24.737-25.274 30.496 1.344 61.136 1.303 91.636 0.011 19.559-0.83 27.036 4.997 26.46 25.691-1.355 48.705 0.174 97.485-0.721 146.212-0.335 18.191 6.54 24.396 24.194 24.161 49.462-0.663 98.949-0.786 148.406 0.045 20.223 0.34 26.518-8.055 26.143-27.423-0.914-47.27 0.666-94.599-0.702-141.847-0.624-21.551 7.278-27.806 27.795-26.861 30.491 1.405 61.125 1.18 91.638 0.065 18.101-0.661 23.939 5.846 23.764 23.85-0.755 77.837-0.335 155.685-0.288 233.53 0.004 7.267-0.15 14.596 0.71 21.785 1.168 9.759 6.997 16.126 16.946 17.025 10.012 0.905 17.022-4.443 19.5-13.892 2.002-7.638 3.023-15.751 3.041-23.659 0.207-90.212 0.24-180.425 0.081-270.636-0.047-26.281-2.198-28.249-28.956-28.317-56.018-0.14-112.046 0.516-168.052-0.343-19.437-0.298-27.267 5.697-26.789 26.175 1.155 49.444-0.066 98.94 0.588 148.401 0.209 15.807-4.919 22.409-21.327 21.766-24.698-0.966-49.488-0.944-74.188-0.007-16.337 0.619-21.664-5.971-21.466-21.773 0.613-48.737 0.298-97.485 0.154-146.228-0.080-26.855-1.205-27.948-28.683-28.003-56.018-0.11-112.053 0.721-168.049-0.412-21.383-0.433-27.727 7.639-27.234 28.077 1.106 45.809 0.348 91.662 0.351 137.494zM149.813 323.262c-15.259-0.436-24.723 15.699-16.514 29.322 3.668 6.089 9.268 11.168 14.548 16.108 116.276 108.763 232.876 217.181 348.675 326.449 15.127 14.274 23.886 6.405 34.375-3.428 53.571-50.222 107.039-100.556 160.669-150.714 61.060-57.107 122.414-113.903 183.254-171.244 11.561-10.896 30.521-23.017 13.1-41.045-16.326-16.896-28.913 0.646-40.092 11.046-106.978 99.54-213.998 199.042-320.161 299.447-13.366 12.641-21.195 9.76-32.22-0.62-55.574-52.334-111.325-104.482-167.183-156.515-53.194-49.551-106.589-98.884-159.911-148.298-5.341-4.948-10.604-10.107-18.544-10.51zM713.325 646.065c20.379 0 40.77-0.46 61.131 0.158 14.084 0.428 19.854-5.807 19.759-19.409-0.253-35.658 0.222-71.327-0.522-106.972-0.288-13.765-4.659-27.764-21.851-26.948-16.212 0.768-17.917 14.304-17.905 27.473 0.017 21.834-0.515 43.68 0.095 65.498 0.394 14.068-5.327 19.726-19.307 19.398-22.548-0.529-45.121-0.227-67.681-0.013-7.239 0.068-14.631 0.206-21.671 1.669-10.827 2.252-19.181 8.002-18.257 20.667 0.907 12.435 9.366 17.822 20.72 18.071 21.822 0.479 43.66 0.14 65.491 0.14 0.001 0.091 0.001 0.18 0.001 0.269z"  horiz-adv-x="1024" />

    
    <glyph glyph-name="caidanxiantiao" unicode="&#58948;" d="M74.76224 667.37152c-8.071168 8.071168-10.76224 16.142336-10.76224 28.694528 0 22.414336 16.142336 38.556672 38.556672 38.556672h818.702336c50.219008 4.481024 50.219008-81.603584 0-78.01344h-818.702336c-11.652096 0.001024-20.62336 3.581952-27.794432 10.76224z m846.496768-321.92512h-818.702336c-11.652096 0-20.62336 3.590144-27.795456 10.76224-7.180288 7.171072-10.76224 17.033216-10.76224 27.795456 0 22.423552 16.142336 38.565888 38.556672 38.565888h818.702336c50.220032 4.48 50.220032-81.604608 0.001024-77.123584z m27.804672-244.80256c23.314432-21.523456 7.171072-70.842368-27.804672-67.252224h-818.702336c-11.652096 0-20.62336 3.580928-27.795456 10.76224-7.180288 7.171072-10.76224 17.033216-10.76224 28.694528 0 22.414336 16.142336 38.556672 38.556672 38.556672h818.702336c10.763264 0.001024 19.733504-3.58912 27.805696-10.761216z"  horiz-adv-x="1024" />

    
    <glyph glyph-name="biaoqing-xue" unicode="&#58931;" d="M508.544 829.12c-247.074-0.255-447.297-200.479-447.552-447.528 0.255-247.098 200.479-447.321 447.528-447.576 247.098 0.255 447.321 200.479 447.576 447.528-0.255 247.098-200.479 447.321-447.528 447.576zM508.544-1.984c-211.727 0.255-383.297 171.825-383.552 383.528 0.255 211.752 171.825 383.321 383.528 383.576 211.752-0.255 383.321-171.825 383.576-383.528-0.255-211.752-171.825-383.321-383.528-383.576zM319.488 491.52c0-26.51 21.49-48 48-48s48 21.49 48 48c0 26.51-21.49 48-48 48-26.51 0-48-21.49-48-48zM587.52 491.52c0-26.51 21.49-48 48-48s48 21.49 48 48c0 26.51-21.49 48-48 48-26.51 0-48-21.49-48-48zM669.248 282.944c-4.878 3.175-10.847 5.064-17.257 5.064-11.248 0-21.138-5.815-26.828-14.603-20.876-32.573-68.044-53.565-120.14-53.565-52.096 0-99.2 20.928-120 53.376-5.714 9.274-15.814 15.364-27.336 15.364-17.673 0-32-14.327-32-32 0-6.662 2.036-12.848 5.519-17.971 32.697-51.025 99.321-82.769 173.817-82.769 74.56 0 141.184 31.744 173.952 82.944 3.149 4.869 5.021 10.82 5.021 17.208 0 11.267-5.823 21.174-14.624 26.876z"  horiz-adv-x="1024" />

    
    <glyph glyph-name="shezhi" unicode="&#58894;" d="M994.86408 506.52a98.848 98.848 0 0 1-68.88 29.336c-5.08 0.536-23.496 2.392-49.968 4.928a391.984 391.984 0 0 1-45.008 79.048c12.264 26.624 20.152 43.872 20.088 43.992 27.464 47.64 11.168 108.752-36.384 136.312L723.14408 853.296a99.856 99.856 0 0 1-50.056 13.504c-35.544 0-68.672-19.072-84.824-47.216 0 0-11.608-16.136-29.824-41.632a393.76 393.76 0 0 1-90.944-0.144c-17.008 24.088-28.176 39.744-28.328 39.744a100.128 100.128 0 0 1-86.552 49.936c-17.344 0-34.504-4.584-49.656-13.248l-91.84-52.76c-47.736-27.464-64.256-88.616-38.2-133.672 0 0 8.968-19.904 23.008-50.648a358.296 358.296 0 0 1-21.056-31.96 372.144 372.144 0 0 1-20.952-42.36c-32.472-2.952-53.8-5.008-54.04-5.136C45.11208 537.624 0.41608 492.976 0.24808 438.056L0.00008 332.184c-0.064-55.04 44.608-99.928 96.616-99.928h0.04s23.808-2.392 60.368-5.848a391.424 391.424 0 0 1 40.2-69.064c-14.728-31.84-24.352-53.008-24.28-53.128a99.16 99.16 0 0 1-10.04-75.6 99.192 99.192 0 0 1 46.4-60.744l91.6-53.16a100.136 100.136 0 0 1 50.056-13.496c35.512 0 68.648 19.072 84.768 47.216 0 0 14.144 19.576 35.632 49.784 26.56-2.888 53.336-3.168 79.928-0.68 20.032-28.392 33.376-47.072 33.496-47.072a100.224 100.224 0 0 1 86.584-49.968c17.368 0 34.56 4.6 49.664 13.288l91.808 52.704a99.256 99.256 0 0 1 46.712 60.624 99.088 99.088 0 0 1-9.04 74.312c-2.208 4.928-10.656 23.64-22.888 50.448a374.088 374.088 0 0 1 26.384 39.216 362.928 362.928 0 0 1 17.312 34.144c31.728 2.896 52.552 4.896 52.704 5.016 54.92 0.096 99.632 44.776 99.72 99.632L1024.00008 435.816a99.36 99.36 0 0 1-29.136 70.704z m-32.264-176.48c-0.032-21.312-17.432-38.656-41.816-38.808-0.064 0-29.696-2.864-73.272-6.776a30.576 30.576 0 0 1-25.64-19.104c-6.832-17.072-13.432-30.92-20.744-43.576-8.896-15.248-19.552-30.296-32.592-45.928a30.544 30.544 0 0 1-4.328-32.296c18.624-40.648 31.072-68.408 31.104-68.472 0.416-0.92 0.888-1.824 1.4-2.72a38.456 38.456 0 0 0 3.824-29.336 38.616 38.616 0 0 0-18.144-23.52l-91.84-52.704c-5.84-3.376-12.48-5.168-19.184-5.168-13.88 0-26.776 7.464-35.312 21.992-0.032 0.032-18.504 25.936-45.24 63.992a30.656 30.656 0 0 1-29.376 12.688 328.48 328.48 0 0 0-99.416 0.864 30.656 30.656 0 0 1-29.784-12.504c-27.168-38.296-46.024-64.416-47.728-67.008-10.264-17.76-35.008-24.48-52.936-14.056l-91.6 53.16c-8.936 5.192-15.328 13.544-17.984 23.544s-1.272 20.448 5.312 32.088c0.032 0.064 13.368 29.368 33.144 71.992a30.528 30.528 0 0 1-3.912 32.024 330.784 330.784 0 0 0-50.056 85.928 30.536 30.536 0 0 1-25.576 19.216c-46.376 4.328-78.08 7.52-81.112 7.672a38.856 38.856 0 0 0-38.664 38.856l0.256 105.816c0.056 21.336 17.416 38.68 38.68 38.68 0.984 0 2.192 0.064 3.176 0.152 0.056 0 30.368 2.952 74.888 6.928a30.544 30.544 0 0 1 25.92 19.784c7.152 19.168 14.888 35.88 23.728 51.072 7.24 12.504 16 25.104 27.552 39.696a30.528 30.528 0 0 1 3.832 31.712c-18.232 39.808-30.488 66.976-31.856 69.68a38.808 38.808 0 0 0 14.296 52.888l91.792 52.728c18.072 10.352 41.888 4.712 54.512-16.808 0.032-0.032 16.416-23.048 40.472-57.144a30.56 30.56 0 0 1 30.176-12.504c35.28 6.072 72.528 6.192 109.176 0.208a30.64 30.64 0 0 1 29.824 12.464c24.024 33.832 40.264 56.352 41.96 58.944 10.272 17.712 34.92 24.512 52.92 14.056l91.6-53.168a38.384 38.384 0 0 0 17.992-23.544c2.656-10.016 1.256-20.464-5.312-32.072 0-0.032-11.512-25.296-28.944-62.96a30.512 30.512 0 0 1 3.968-32.056c23.464-29.016 41.632-60.952 54.024-94.944a30.512 30.512 0 0 1 25.84-19.968c41.496-3.936 69.512-6.808 69.568-6.808 11.288-0.952 22.328-3.496 30.392-11.52a38.528 38.528 0 0 0 11.312-27.432l-0.272-105.92zM603.66408 541.984a177.816 177.816 0 0 1-89.128 24.024c-63.24 0-122.216-33.936-153.944-88.584-49.184-84.832-20.224-193.856 64.56-243.072a177.76 177.76 0 0 1 89.12-24.032c63.24 0 122.224 33.936 153.952 88.584a176.6 176.6 0 0 1 18.056 134.904 176.568 176.568 0 0 1-82.616 108.176z m11.672-212.4a117.168 117.168 0 0 0-101.064-58.144c-20.448 0-40.648 5.44-58.44 15.792-55.632 32.296-74.648 103.832-42.352 159.504a117.16 117.16 0 0 0 101.056 58.144c20.448 0 40.656-5.432 58.448-15.792a115.944 115.944 0 0 0 54.224-70.976c8-30.112 3.8-61.576-11.872-88.528z"  horiz-adv-x="1024" />

    
    <glyph glyph-name="huiyuan" unicode="&#58903;" d="M512 640a85.333 85.333 0 1 1 0 170.667A85.333 85.333 0 0 1 512 640z m0 42.667A42.667 42.667 0 1 0 512 768a42.667 42.667 0 0 0 0-85.333zM309.781 365.269a21.333 21.333 0 0 1 26.07 4.459L512 565.44l176.15-195.712a21.333 21.333 0 0 1 26.069-4.459l196.522 107.2L835.136 0H188.949l-14.122 91.968h563.52a21.333 21.333 0 1 1 0 42.667H149.973a21.333 21.333 0 0 1-21.077-24.576l20.693-134.635a21.333 21.333 0 0 1 21.078-18.09h682.666a21.333 21.333 0 0 1 21.056 17.962l85.334 533.333a21.333 21.333 0 0 1-31.275 22.102L708.587 410.795 527.85 611.605a21.333 21.333 0 0 1-31.702 0l-180.736-200.81L95.573 530.73A21.333 21.333 0 0 1 64.3 508.523l46.165-278.678a21.333 21.333 0 0 1 42.07 6.955l-38.998 235.52 196.267-107.05z"  horiz-adv-x="1024" />

    
    <glyph glyph-name="chazhaowenjian" unicode="&#58965;" d="M433.784 81.77H161.641c-21.858 0-39.577 17.718-39.577 39.577V714.996c0 21.856 17.718 39.577 39.577 39.577h356.19v-178.097c0-43.714 35.439-79.153 79.153-79.153H755.29v-28.996a257.581 257.581 0 0 0 39.577-25.476v74.261l-6.996 6.997 1.201 6.997-244.257 263.041H161.64c-43.714 0-79.153-35.437-79.153-79.151v-593.649c0-43.716 35.439-79.153 79.153-79.153h310.55a258.806 258.806 0 0 0-38.406 39.576z m123.623 639.926l173.246-184.795h-133.67c-21.858 0-39.577 17.718-39.577 39.575v145.22zM221.006 259.865v-39.579h159.056a260.75 260.75 0 0 0-0.75 19.788c0 6.659 0.253 13.259 0.75 19.79H221.006z m0 197.881h197.883v39.577H221.006v-39.577z m198.748-79.153H221.006v-39.575h178.036a256.452 256.452 0 0 0 20.712 39.575z m-0.865 237.462H221.006v-39.579h197.883v39.579zM636.56 457.746c-120.216 0-217.671-97.453-217.671-217.671 0-120.214 97.455-217.671 217.671-217.671s217.671 97.457 217.671 217.671c0 120.218-97.455 217.671-217.671 217.671z m0-395.766c-98.36 0-178.095 79.737-178.095 178.095 0 98.36 79.735 178.095 178.095 178.095s178.095-79.735 178.095-178.095c0-98.358-79.735-178.095-178.095-178.095z m298.232-92.15L831.788 72.836a258.588 258.588 0 0 0-27.987-27.987l103.004-103.004c7.729-7.727 20.259-7.727 27.987 0 7.727 7.729 7.727 20.257 0 27.985z m-436.75 270.245c0-6.734 0.643-13.306 1.573-19.788h156.733v39.579H499.615c-0.93-6.482-1.573-13.053-1.573-19.791z m41.666 98.943h116.64V377.02c-6.479 0.93-13.05 1.573-19.788 1.573-37.718 0-71.873-15.122-96.852-39.575z"  horiz-adv-x="1024" />

    
    <glyph glyph-name="dianpu-" unicode="&#58881;" d="M824 552H200c-13.3 0-24-10.7-24-24s10.7-24 24-24h624c13.3 0 24 10.7 24 24 0 13.2-10.8 24-24 24zM990.5 407.1c-0.3 2.8-0.7 5.8-1.1 8.8-0.8 6.1-1.7 12.5-2.8 19.2-0.6 3.6-1.3 7.4-2 11.2-1.3 6.9-2.7 14-4.2 21.3-0.8 3.8-1.5 7.5-2.4 11.3-2 9-4.1 18.2-6.3 27.6-0.6 2.4-1.1 4.6-1.6 7-2.9 12-6 24.3-9.3 36.6l-2.1 7.8c-2.6 9.9-5.3 19.7-8 29.5-0.9 3.4-1.9 6.7-2.8 10.1-2.7 9.5-5.3 18.7-8 27.9-0.8 2.7-1.5 5.3-2.3 7.9-3.2 10.9-6.3 21.5-9.4 31.7-0.1 0.4-0.2 0.8-0.3 1.1C910.3 724.6 896 768 896 768c-15 43.6-32.2 72-72 72H200c-39.8 0-55.7-20.2-72-72 0 0-20-60.5-41.8-135.1-0.7-2.3-1.3-4.5-2-6.8-2.8-9.5-5.5-19.2-8.3-29-0.9-3.1-1.7-6.1-2.6-9.2-2.8-10.2-5.6-20.4-8.3-30.7l-1.8-6.9c-3.3-12.4-6.4-24.8-9.3-36.9-0.5-2.1-0.9-4-1.4-6-2.3-9.7-4.5-19.2-6.5-28.5-0.8-3.8-1.5-7.3-2.3-11-1.6-7.5-3-14.7-4.3-21.7-0.7-3.7-1.3-7.4-1.9-10.9-1.1-6.8-2-13.2-2.8-19.4-0.4-2.9-0.8-5.9-1.1-8.6-0.9-8.5-1.5-16.4-1.5-23.1 0-7.8 0.9-15.4 2.3-22.8 0.5-2.4 1.3-4.7 1.9-7.1 1.3-4.9 2.6-9.7 4.4-14.3 1.1-2.7 2.4-5.1 3.6-7.7 2-4.1 4-8 6.4-11.8 1.6-2.5 3.3-4.9 5.1-7.3 2.6-3.5 5.3-6.8 8.2-10 2-2.2 4.1-4.3 6.3-6.4 3.2-3 6.6-5.7 10.1-8.3 2.3-1.8 4.6-3.6 7.1-5.1 3.9-2.5 8.1-4.6 12.3-6.7 2.4-1.2 4.6-2.5 7-3.5 6-2.4 12.2-4.3 18.7-5.8 0.9-0.2 1.7-0.6 2.6-0.8V24c0-53 43-96 96-96h312V144c0 13.3 10.7 24 24 24h96c13.3 0 24-10.7 24-24v-216h120c53 0 96 43 96 96V266.4c0.9 0.2 1.8 0.6 2.7 0.8 6.4 1.5 12.6 3.3 18.5 5.8 2.5 1 4.7 2.3 7.1 3.5 4.2 2.1 8.4 4.2 12.3 6.7 2.5 1.6 4.7 3.4 7.1 5.2 3.5 2.6 6.9 5.3 10 8.3 2.2 2.1 4.2 4.2 6.3 6.4 2.9 3.2 5.6 6.5 8.2 10 1.8 2.4 3.5 4.8 5.1 7.3 2.4 3.8 4.4 7.7 6.4 11.8 1.2 2.6 2.6 5.1 3.6 7.7 1.8 4.6 3.2 9.4 4.4 14.2 0.6 2.4 1.5 4.7 1.9 7.1 1.4 7.4 2.3 15 2.3 22.8-0.1 6.7-0.6 14.6-1.5 23.1zM848 266.4V24c0-26.5-21.5-48-48-48h-72V144c0 39.7-32.3 72-72 72h-96c-39.7 0-72-32.3-72-72v-168H224c-26.5 0-48 21.5-48 48V266.4v0.2c47 9.6 84.1 46.4 93.6 93.4h4.8c11.1-54.8 59.5-96 117.6-96 58 0 106.5 41.2 117.6 96h4.8c11.1-54.8 59.5-96 117.6-96 58 0 106.5 41.2 117.6 96h4.8c9.5-47 46.6-83.8 93.6-93.4v-0.2z m94.6 104.1c-0.3-1.6-0.9-3.2-1.3-4.8-0.7-2.7-1.4-5.3-2.4-7.9-0.7-1.8-1.6-3.5-2.4-5.2-1.1-2.2-2.2-4.4-3.5-6.5-1-1.6-2.1-3.2-3.2-4.7-1.5-2-3.1-4-4.8-5.9-1.2-1.3-2.4-2.6-3.7-3.8-2-1.9-4.2-3.6-6.4-5.3-1.3-0.9-2.5-1.9-3.8-2.8-2.6-1.7-5.4-3.1-8.3-4.5-1.2-0.5-2.2-1.2-3.4-1.7-4-1.6-8.1-2.9-12.3-3.8-0.2 0-0.4-0.1-0.6-0.2-4.7-1-9.5-1.5-14.4-1.5-34.1 0-63.8 24.2-70.5 57.5-4.5 22.4-24.2 38.4-47 38.4h-4.8c-22.8 0-42.5-16.1-47-38.4-6.8-33.3-36.4-57.5-70.5-57.5s-63.8 24.2-70.5 57.5c-4.5 22.4-24.2 38.5-47 38.5H510c-22.8 0-42.5-16.1-47-38.4-6.8-33.3-36.4-57.5-70.5-57.5s-63.8 24.2-70.5 57.5c-4.5 22.4-24.2 38.4-47 38.4h-4.8c-22.8 0-42.5-16.1-47-38.5-6.8-33.3-36.4-57.5-70.5-57.5-5 0-9.8 0.5-14.5 1.5-0.2 0-0.3 0.1-0.5 0.1-4.3 0.9-8.4 2.2-12.4 3.9-1.2 0.5-2.2 1.1-3.4 1.7-2.9 1.4-5.7 2.8-8.3 4.5-1.3 0.9-2.5 1.8-3.8 2.8-2.2 1.7-4.4 3.4-6.4 5.3-1.3 1.2-2.5 2.5-3.7 3.8-1.7 1.9-3.3 3.8-4.9 5.9-1.1 1.5-2.2 3.1-3.2 4.6-1.3 2.1-2.5 4.3-3.6 6.6-0.8 1.7-1.7 3.4-2.4 5.1-1 2.6-1.8 5.2-2.5 7.9-0.4 1.6-1 3.1-1.3 4.7-0.8 4.4-1.4 8.9-1.4 13.5v0.2c0 4 0.3 8.5 0.7 13.4 0.1 1.4 0.3 2.9 0.4 4.4 0.4 3.9 0.9 8 1.5 12.3 0.2 1.6 0.4 3.1 0.7 4.7 0.9 5.8 1.9 11.9 3.1 18.4 0.2 1 0.4 2.1 0.6 3.2 1.1 5.6 2.2 11.4 3.5 17.5 0.5 2.2 0.9 4.4 1.4 6.6 1.2 5.5 2.5 11.2 3.8 17 0.4 1.9 0.8 3.7 1.3 5.5 1.7 7.4 3.6 15.1 5.5 22.8 0.5 2.2 1.1 4.4 1.7 6.6 1.5 5.8 3 11.7 4.5 17.7 0.8 2.9 1.5 5.8 2.3 8.7 1.5 5.7 3.1 11.5 4.6 17.3 0.7 2.5 1.3 5 2 7.5 2.1 7.5 4.1 14.9 6.2 22.4 1.1 3.9 2.2 7.9 3.4 11.8 1.1 3.9 2.2 7.8 3.4 11.7 1.2 4.2 2.5 8.5 3.7 12.7 1 3.4 2 6.7 3 10 2.6 8.9 5.3 17.7 7.8 26.2 11.2 36.9 21.6 69.4 28.8 91.2 12 38.4 16.2 38.4 26.2 38.4H824c6.1 0 13 0 26.4-39.1 6.9-20.9 16.9-52 27.7-87.5 3-9.9 6.1-20.2 9.2-30.7l2.4-8.1c1.3-4.5 2.6-9 3.9-13.6l3-10.5 3.6-12.6c2.1-7.3 4.1-14.6 6.1-21.9 0.8-2.8 1.5-5.6 2.3-8.4 1.5-5.5 2.9-10.9 4.4-16.3 0.8-3 1.6-6 2.4-9.1 1.5-5.9 3-11.8 4.5-17.6 0.5-2.2 1.1-4.4 1.7-6.5 1.9-7.7 3.8-15.3 5.5-22.8 0.5-1.9 0.9-3.8 1.3-5.7 1.3-5.8 2.6-11.4 3.8-16.9 0.5-2.2 0.9-4.4 1.4-6.6 1.3-6.1 2.4-11.9 3.5-17.6l0.6-3c1.2-6.5 2.2-12.6 3.1-18.5 0.2-1.6 0.4-3 0.6-4.5 0.6-4.4 1.1-8.5 1.5-12.5 0.1-1.5 0.3-2.9 0.4-4.3 0.4-4.9 0.7-9.6 0.7-13.6-0.1-4.7-0.6-9.2-1.4-13.6z"  horiz-adv-x="1024" />

    
    <glyph glyph-name="shuru" unicode="&#58994;" d="M804.723493 551.118503l44.70686 55.351351c44.706861 55.351351 38.320166 136.24948-12.773388 183.08524l-89.413722 76.640332c-21.288981 19.160083-51.093555 29.804574-80.898129 29.804574-38.320166 0-74.511435-17.031185-97.929314-46.835759l-44.70686-55.351351 281.014553-242.694387zM583.318087 798.070686l17.031185 21.288981c17.031185 19.160083 42.577963 31.933472 68.12474 31.933472 19.160083 0 38.320166-6.386694 53.222454-19.160083L808.981289 753.363825c34.06237-29.804574 38.320166-85.155925 8.515592-121.347193l-17.031185-21.288981-217.147609 187.343035zM1000.582121-85.422037H204.37422l125.60499 34.06237c10.644491 2.128898 19.160083 8.515593 25.546778 17.031185l395.975052 483.259875c19.160083 23.417879 14.902287 55.351351-6.386695 74.511434L510.935551 727.817048c-10.644491 8.515593-25.546778 14.902287-38.320166 12.773389-14.902287-2.128898-27.675676-8.515593-36.191269-19.160084L40.449064 236.04158c-6.386694-8.515593-10.644491-19.160083-12.773388-29.804574L0-68.390852v-42.577963c0-10.644491 6.386694-17.031185 17.031185-17.031185H1000.582121c12.773389 0 21.288981 8.515593 21.288981 21.288981s-8.515593 21.288981-21.288981 21.288982zM70.253638 201.97921c0 2.128898 0 4.257796 2.128898 6.386694L470.486486 693.754678c2.128898 2.128898 4.257796 4.257796 6.386695 4.257796 2.128898 0 4.257796 0 6.386694-2.128898l232.049896-202.245322c4.257796-4.257796 4.257796-10.644491 2.128898-14.902287L323.592516-4.523909l-4.257797-4.257796L51.093555-85.422037c-2.128898 0-4.257796 2.128898-4.257796 2.128898-4.257796 4.257796-4.257796 6.386694-4.257796 10.64449l27.675675 274.627859z"  horiz-adv-x="1024" />

    
    <glyph glyph-name="mingpian" unicode="&#59756;" d="M873.614168 702.391336h-723.210273c-40.585751 0-73.585381-33.017692-73.585381-73.585381V139.194045c0-40.585751 33.017692-73.585381 73.585381-73.585381h723.210273c40.585751 0 73.585381 33.017692 73.58538 73.585381V628.805955c0 40.567689-33.017692 73.585381-73.58538 73.585381zM908.817385 139.194045c0-19.416859-15.786358-35.203217-35.203217-35.203217h-723.210273c-19.416859 0-35.203217 15.786358-35.203218 35.203217V628.805955c0 19.416859 15.786358 35.203217 35.203218 35.203217h723.210273c19.416859 0 35.203217-15.786358 35.203217-35.203217V139.194045zM274.88854 368.294922c49.743284 0 90.220662 40.477378 90.220662 90.238724 0 49.743284-40.477378 90.220662-90.220662 90.220662s-90.220662-40.477378-90.220662-90.220662c-0.018062-49.761346 40.459316-90.238724 90.220662-90.238724z m0 143.197079c29.206569 0 52.976417-23.769848 52.976417-52.976417 0-29.206569-23.769848-52.976417-52.976417-52.976417-29.206569 0-52.976417 23.769848-52.976417 52.976417 0 29.206569 23.769848 52.976417 52.976417 52.976417zM821.414425 548.754308H450.073766c-10.277389 0-18.622123-8.344734-18.622123-18.622122 0-10.277389 8.344734-18.622123 18.622123-18.622123h373.977739c10.277389 0 16.003104 8.344734 16.003105 18.622123-0.018062 10.277389-8.362796 18.622123-18.640185 18.622122zM821.414425 402.631154H450.073766c-10.277389 0-18.622123-8.344734-18.622123-18.622123 0-10.277389 8.344734-18.622123 18.622123-18.622123h373.977739c10.277389 0 16.003104 8.344734 16.003105 18.622123-0.018062 10.277389-8.362796 18.622123-18.640185 18.622123zM822.010477 256.507999H203.091316c-9.934207 0-18.008008-8.344734-18.008008-18.622122 0-10.277389 8.073801-18.622123 18.008008-18.622123H824.66562c9.934207 0 15.352865 8.344734 15.352866 18.622123 0 10.277389-8.055739 18.622123-18.008009 18.622122z"  horiz-adv-x="1024" />

    
    <glyph glyph-name="tuijian1" unicode="&#59195;" d="M921.6 273.4c0 26.9-8.1 48.5-23.4 63.1 12 14.6 23.2 42.1 23.2 67v0.2c-1.3 53.7-51.7 91.3-122.7 91.3H632.3c26.8 86.4 19.3 196.9-18.6 257.4-11.6 18.5-37.2 49.5-78.1 49.5-31.3 0-54.2-13.9-66.3-40.1-10-21.7-10-46.7-10-54.9 0-41.8-1.7-83.4-22.3-132.7-9-16.8-68.1-79.6-127.7-79.6H190.2c-22.6 0-42.9-8.4-58.8-24.2-19.2-19.3-29.8-47.8-29.8-80.3v-0.4l31-333.4c4.3-58.6 35.2-90.8 87-90.8 0.2 0 24.9-0.2 43.2-0.2 10 0 18.6 0.1 23.7 0.2 17.6 0.6 31.6 11.2 42.9 19.8l3.1 2.4c3.6 2.8 8.9 6.8 11.5 7.6 1.9-0.8 5.4-2.6 8.6-4.2 6-3 14.3-7.2 23.3-11 21.1-9.2 51.6-15.1 77.9-15.1h249.3c115.6 0 132.9 59.2 132.9 94.5 0 12.6-2 21.9-7.2 31.9 36.8 12.7 58.3 39.1 58.3 72.3 0 10.9-3.3 26.9-9.7 38.4 19.9 11.8 44.3 39.7 44.2 71.3zM184.7 52.7l-30.9 345.4c0.2 23.9 18.6 42.6 35.6 44.5l116.6-0.4v-409.3c-3.8-2.7-7.4-5.4-10.4-7.7-5.8-4.4-10.4-7.1-12.1-8-4.5-0.1-12.2-0.2-23-0.2-16 0-34.2 0.1-43.7 0.2h-0.7c-14.3 0.1-27.7 15.3-31.4 35.5z m633 184.5l0.6-46.5 6.3-2.4c3.2-1.2 10.7-4 10.7-23.6 0-12.5-15.7-31.1-58.9-31.1h-9l-0.8-46 7.3-1.7c3.3-0.8 10.1-2.3 10.1-23.4 0-13.7-5.5-24-16.7-31.4-13.8-9.2-35.5-13.8-64.8-13.8H444.3c-10.3 0-34 6.7-47.8 13.5-10.7 5.3-26.8 14.4-36.5 19.8-0.5 0.3-0.9 0.5-1.4 0.8V450.5c65.5 21.3 117.3 77.9 130.9 104.5l0.2 0.3 0.1 0.3c14.4 34.3 22.8 70.7 22.8 155.1 0 35.9 11.3 35.9 20.3 35.9 9.2 0 28.1-12.5 37.9-28.1 15.3-24.3 24.5-62.7 25.4-105.3 0.9-46.5-8.4-92.4-26.2-129.3l-0.4-0.9-9.8-40.9 240.2 0.1c34.3-2 69-15.8 69.2-38.5l-0.3-9.9c-0.3-5-2.7-22-10.8-28.9-7.5-6.4-13.4-7.3-14.3-7.4l-8.7 0.1-0.4-47.8 8-1.1c3.6-0.5 12.2-2.4 16-5.1 7.2-5 11.1-15.3 10.6-28.2-0.2-6.3-6.1-16.2-14.5-24.6-9.6-9.5-18.9-13.8-23.5-13.8l-13.6 0.2z"  horiz-adv-x="1024" />

    
    <glyph glyph-name="yuyin1" unicode="&#59473;" d="M777.1672384 502.1208384v-130.5843808c0-151.08388587-122.91900907-274.00289493-274.002896-274.002896-151.0643808 0-273.96388587 122.91900907-273.9638848 274.002896v130.5843808H180.41904747v-130.5843808c0-169.7304384 131.79367573-308.9944384 298.36434346-321.536v-71.77752427h-179.13173333v-48.76190506h407.0643808v48.76190506h-179.17074347v71.77752427c166.60967573 12.5415616 298.40335253 151.7860576 298.40335254 321.536v130.5843808h-48.76190507zM500.3556576 175.37706666999998c105.48175253 0 191.01013333 85.50887573 191.01013333 190.99062826V661.1236576C691.36579093 766.60540907 605.81790507 852.11428587 500.3556576 852.11428587c-105.48175253 0-190.99062827-85.50887573-190.99062933-190.99062827v-294.75596267c0-105.48175253 85.50887573-190.99062827 190.99062933-190.99062826"  horiz-adv-x="1024" />

    
    <glyph glyph-name="shouye" unicode="&#58907;" d="M727.466667-70.4h-136.533334c-14.933333 0-25.6 12.8-25.6 25.6V241.066667v8.533333h-106.666666v-294.4c0-14.933333-12.8-25.6-25.6-25.6h-136.533334c-70.4 0-128 64-128 140.8v234.666667h-21.333333c-36.266667 0-66.133333 17.066667-78.933333 49.066666-10.666667 25.6-8.533333 66.133333 27.733333 106.666667L418.133333 797.866667c25.6 25.6 59.733333 40.533333 93.866667 40.533333 36.266667 0 70.4-14.933333 93.866667-40.533333l322.133333-339.2c38.4-40.533333 40.533333-81.066667 27.733333-106.666667-12.8-32-42.666667-49.066667-78.933333-49.066667h-21.333333v-234.666666c0-76.8-55.466667-138.666667-128-138.666667zM618.666667-17.066667h110.933333c46.933333 0 74.666667 44.8 74.666667 87.466667V330.666667c0 14.933333 12.8 25.6 25.6 25.6h46.933333c14.933333 0 25.6 6.4 29.866667 17.066666 0 2.133333 8.533333 21.333333-19.2 49.066667l-320 339.2c-29.866667 32-81.066667 32-110.933334 0L134.4 422.4c-25.6-27.733333-19.2-46.933333-19.2-49.066667 4.266667-12.8 14.933333-17.066667 29.866667-17.066666H192c14.933333 0 25.6-12.8 25.6-25.6v-260.266667c0-42.666667 27.733333-87.466667 74.666667-87.466667H405.333333V241.066667c0 17.066667 0 36.266667 12.8 49.066666 12.8 12.8 32 12.8 38.4 12.8h108.8c6.4 0 25.6 0 38.4-12.8 12.8-12.8 12.8-32 12.8-49.066666v-258.133334z"  horiz-adv-x="1024" />

    
    <glyph glyph-name="hudong" unicode="&#58887;" d="M456.3 798.2h-323c-19.3 0-35-15.7-35-35v-258.6c0-17.6 14.4-32 32-32h326.1c17.6 0 32 14.4 32 32V766.2c-0.1 17.7-14.4 32-32.1 32z m-8-285.6h-310V758.2h310.1v-245.6zM895.7 294.5H572.6c-19.3 0-35-15.7-35-35v-259c0-17.6 14.4-32 32-32h326.1c17.6 0 32 14.4 32 32v262c0 17.6-14.4 32-32 32z m-8-286H577.6v246h310.1v-246zM759.4 670c45.6-53.4 72-123.4 72.6-192.2h-53.2c-2.4 0-3.7-2.9-2.1-4.7l73.2-82.1c1.1-1.2 3.1-1.2 4.2 0l73.2 82.1c1.6 1.8 0.3 4.7-2.1 4.7H872c-0.6 78.2-30.4 157.6-82.2 218.2-26.2 30.7-56.4 54.9-89.8 72.1-35.6 18.3-73 27.6-111.3 27.6v-40c62.9 0 123.5-30.5 170.7-85.7zM265.6 94.3c-45.6 53.4-72 123.4-72.6 192.2h53.2c2.4 0 3.7 2.9 2.1 4.7l-73.2 82.1c-1.1 1.2-3.1 1.2-4.2 0l-73.2-82.1c-1.6-1.8-0.3-4.7 2.1-4.7H153c0.6-78.2 30.4-157.6 82.2-218.2 26.2-30.7 56.4-54.9 89.8-72.1 35.6-18.3 73-27.6 111.3-27.6v40c-62.9 0-123.5 30.4-170.7 85.7z"  horiz-adv-x="1024" />

    
    <glyph glyph-name="kefu" unicode="&#59070;" d="M512 332.8a153.6 153.6 0 1 1 0 307.2 153.6 153.6 0 0 1 0-307.2z m0-51.2a204.8 204.8 0 1 0 0 409.6 204.8 204.8 0 0 0 0-409.6zM484.9664 230.4a319.2832 319.2832 0 0 1-285.5936-176.4864l-28.2624-56.6272A51.2 51.2 0 0 1 216.8832-76.8h590.2336a51.2 51.2 0 0 1 45.7728 74.0864l-28.2624 56.6272A319.2832 319.2832 0 0 1 539.0336 230.4H484.9664z m0 51.2h54.0672A370.4832 370.4832 0 0 0 870.4 76.8l28.3136-56.6272A102.4 102.4 0 0 0 807.0656-128H216.9344a102.4 102.4 0 0 0-91.5968 148.1728L153.6 76.8a370.4832 370.4832 0 0 0 331.3664 204.8zM204.8 384v-79.9232l-68.2496 19.2a128 128 0 0 0 0 241.408l27.9552 9.8816a358.5536 358.5536 0 0 0 694.9888 0l27.9552-9.8816a128 128 0 0 0 0-241.408L819.2 304.0768V486.4A307.2 307.2 0 1 1 204.8 486.4v-102.4z m665.6 132.4032v-144.896a76.8 76.8 0 0 1 0 144.896z m-716.8 0a76.8 76.8 0 0 1 0-144.896v144.896z"  horiz-adv-x="1024" />

    
    <glyph glyph-name="xianshimima" unicode="&#58883;" d="M512 543.232c-87.552 0-159.232-71.68-159.232-159.232 0-88.064 71.168-159.232 159.232-159.232 87.552 0 159.232 71.68 159.232 159.232 0 88.064-71.68 159.232-159.232 159.232z m0-259.072c-54.784 0-99.84 45.056-99.84 99.84 0 55.296 44.544 99.84 99.84 99.84 54.784 0 99.84-44.544 99.84-99.84s-45.056-99.84-99.84-99.84z m442.88 116.736c-2.048 2.56-46.592 69.632-122.88 137.728-45.056 40.448-91.648 72.704-138.752 96.256-59.904 30.208-120.832 46.08-180.224 47.104h-1.536c-59.904-1.536-120.32-17.408-180.224-47.104-47.616-24.064-94.208-56.32-139.264-96.256-76.288-68.096-121.344-134.656-122.88-137.728-3.584-5.12-5.12-10.752-5.12-16.896 0-6.144 1.536-11.776 5.12-16.896 2.048-2.56 46.592-69.632 122.88-137.728 45.056-40.448 91.648-72.704 138.752-96.256 59.904-30.208 120.832-46.08 180.224-47.104h1.024c59.904 1.536 120.32 17.408 180.224 47.104 47.104 23.552 93.696 55.808 138.752 96.256 76.288 68.096 121.344 134.656 122.88 137.728 3.072 5.12 5.12 10.752 5.12 16.384v0.512c1.024 6.144-0.512 11.776-4.096 16.896zM512 145.92c-115.712 2.56-215.552 70.656-279.552 127.488-49.152 44.032-84.992 88.064-102.4 111.104 41.984 55.296 191.488 233.472 381.952 238.08 115.712-2.56 215.552-70.656 279.552-127.488 49.152-44.032 84.992-88.064 102.4-111.104-41.984-55.296-191.488-233.472-381.952-238.08z"  horiz-adv-x="1024" />

    
    <glyph glyph-name="icon-dxfs" unicode="&#58932;" d="M932.98384592 665.17371259H390.83121778c-15.53445925 0-24.85513482 0-41.94304-12.42756741-4.66033778-3.10689185-6.2137837-6.2137837-9.32067556-9.32067555-12.42756741-13.98101333-10.87412148-34.17581037 1.55344593-46.60337778l264.0858074-237.67722667 1.55344593-1.55344593c3.10689185-1.55344592 4.66033778-3.10689185 7.76722963-4.66033777 1.55344592 0 1.55344592 0 3.10689186-1.55344593 3.10689185-1.55344592 4.66033778-1.55344592 6.2137837-1.55344592h4.66033778c1.55344592 0 4.66033778 0 6.2137837 1.55344592 3.10689185 1.55344592 6.2137837 1.55344592 7.76722963 3.10689186L956.28553482 601.4824296300001 900.36148148 216.22784000000001c-3.10689185-20.19479703-24.85513482-31.06891852-31.06891851-31.06891852H310.05202963c-17.08790518 0-32.62236445-6.2137837-32.62236445-24.85513481 0-17.08790518 12.42756741-20.19479703 29.5154726-20.19479704h559.24053333c37.28270222 0 71.45851259 31.06891852 76.11885037 68.35162074L993.56823703 593.7152c3.10689185 18.64135111-3.10689185 37.28270222-13.98101333 51.26371555-12.42756741 12.42756741-29.51547259 20.19479703-46.60337778 20.19479704zM912.78904889 617.01688889L625.40155259 402.64135111l-248.55134814 211.26864592 535.93884444 3.10689186z m0 0M513.55344592 283.02601482c0 17.08790518-15.53445925 21.74824297-31.06891851 21.74824296H204.41770667c-17.08790518 0-29.51547259-4.66033778-29.51547259-21.74824296 0-17.08790518 15.53445925-21.74824297 32.62236444-21.74824297h276.51337481c17.08790518 0 29.51547259 4.66033778 29.51547259 21.74824297z m-90.0998637 122.72222815H64.60757333C45.96622222 405.74824297 30.43176297 399.53445925 30.43176297 382.44655408000006s15.53445925-23.30168889 31.06891851-23.3016889h358.84600889c17.08790518 0 29.51547259 4.66033778 29.5154726 23.3016889s-9.32067555 23.30168889-26.40858075 23.30168889z m-254.76513185 69.90506666h163.11182222c17.08790518 0 32.62236445 6.2137837 32.62236444 23.30168889s-17.08790518 23.30168889-32.62236444 23.30168889H168.68845037c-17.08790518 0-27.96202667-6.2137837-27.96202667-23.30168889s10.87412148-23.30168889 27.96202667-23.30168889z m0 0"  horiz-adv-x="1024" />

    
    <glyph glyph-name="haibaozhizuo" unicode="&#58889;" d="M837.248 19.328H184.704c-52.352 0-94.848 42.496-94.848 94.848v556.8c0 52.352 42.496 94.848 94.848 94.848h652.544c52.352 0 94.848-42.496 94.848-94.848v-556.8c0-52.352-42.496-94.848-94.848-94.848zM184.704 727.424c-31.104 0-56.448-25.344-56.448-56.448v-556.8c0-31.104 25.344-56.448 56.448-56.448h652.544c31.104 0 56.448 25.344 56.448 56.448v556.8c0 31.104-25.344 56.448-56.448 56.448H184.704zM269.184 135.808h-3.84c-105.6 2.048-166.272 87.808-168.832 91.52l31.616 21.888-15.744-10.88 15.744 11.008c0.512-0.768 52.608-73.6 138.496-75.008 79.744-1.28 164.224 56.704 251.264 172.416 15.488 20.736 74.624 75.776 160.256 82.048 78.08 5.632 156.288-29.824 232.448-105.216l23.168-16.896-22.656-30.976-25.472 18.688-1.024 1.024C816.256 363.392 747.776 395.52 680.96 390.656c-31.744-2.304-62.208-12.8-90.752-31.104-23.424-15.104-37.888-30.848-41.472-35.712-93.952-124.8-187.904-188.032-279.552-188.032zM703.488 486.016c-59.008 0-107.008 48-107.008 107.008s48 107.008 107.008 107.008c59.008 0 107.008-48 107.008-107.008s-48-107.008-107.008-107.008z m0 175.616c-37.888 0-68.608-30.72-68.608-68.608s30.72-68.608 68.608-68.608 68.608 30.72 68.608 68.608-30.72 68.608-68.608 68.608z"  horiz-adv-x="1024" />

    
    <glyph glyph-name="feiji" unicode="&#58890;" d="M437.513-14.13h40.42s0.512 179.122 0 192.68 5.35 28.42 11.257 35.305l448.72 522.91S815.694 112.212 814.067 103.931c-1.257-6.393-5.435-9.121-11.235-7.245-6.997 2.266-262.478 81.865-262.478 81.865l-12.982-39.397s242.571-76.188 266.762-83.4c26.606-7.93 54.235 9.21 59.864 39.397 4.644 24.907 131.175 668.911 133.031 680.497 1.854 11.584 6.98 27.97-12.515 37.38-14.432 6.966-31.828-8.046-31.828-8.046l-5.459 10.577S117.132 377.669 87.883 361.894s-27.952-49.001-3.41-56.966c24.54-7.963 272.199-88.344 272.199-88.344l12.621 38.886-244.91 78.794 765.432 409.663s-409.322-476.86-426.207-496.303-26.384-39.653-26.35-65.236l0.255-196.519z"  horiz-adv-x="1024" />

    
    <glyph glyph-name="yincangmima" unicode="&#58884;" d="M541.0304 172.7488a31.488 31.488 0 0 0-31.6928 31.232v131.9936l-8.3968 0.512a489.472 489.472 0 0 0-98.2016 16.7936l-7.3728 2.048-69.7344-149.504a31.488 31.488 0 0 0-41.8816-15.0528 31.744 31.744 0 0 0-15.5136 41.7792l67.584 144.9472-8.0896 3.7888a418.9696 418.9696 0 0 0-138.9056 105.1648 362.8032 362.8032 0 0 0-65.6384 110.9504 31.6928 31.6928 0 0 0 59.5456 21.76 298.24 298.24 0 0 1 54.272-91.4944 363.4688 363.4688 0 0 1 130.1504-94.72c51.5584-22.528 109.568-34.4064 167.8336-34.4064a423.424 423.424 0 0 1 167.936 34.3552 361.5744 361.5744 0 0 1 130.1504 94.7712 297.8816 297.8816 0 0 1 54.272 91.4432 31.744 31.744 0 0 0 40.6528 18.8416 31.488 31.488 0 0 0 18.8416-40.6016A359.936 359.936 0 0 0 881.2032 486.4a402.944 402.944 0 0 0-17.4592-19.0976l-6.144-6.3488 105.5744-105.6768a31.8976 31.8976 0 0 0-22.528-53.9648h-0.1536a31.1296 31.1296 0 0 0-22.016 9.1136l-109.824 109.7728-6.144-4.1984c-19.0464-13.056-39.424-24.832-60.7744-34.9184l-8.0384-3.7888 67.4816-144.64a31.744 31.744 0 0 0-29.0304-44.8512 31.232 31.232 0 0 0-28.416 18.0736l-69.632 149.3504-7.3728-2.048a497.152 497.152 0 0 0-86.016-15.7696l-8.192-0.7168v-132.6592a31.488 31.488 0 0 0-31.488-31.3344zM134.2976 301.4144a31.744 31.744 0 0 0-22.528 53.9136L221.184 464.896l5.9392 5.9392a31.3344 31.3344 0 0 0 22.1696 9.1136h0.1536a31.8464 31.8464 0 0 0 22.528-53.9648L156.672 310.4768a31.3344 31.3344 0 0 0-22.1696-9.1136h-0.1536z"  horiz-adv-x="1024" />

    
    <glyph glyph-name="xiaotuziCduan_" unicode="&#58895;" d="M752.57 482.08L558.92 236.73c-20.75-25.85-72.63-25.85-93.38 0L271.3 482.08c-20.75 25.85-5.87 68.58 35.63 68.58h410.59c41.51 0 55.8-42.73 35.05-68.58z m0 0"  horiz-adv-x="1024" />

    
    <glyph glyph-name="gouwuche1" unicode="&#58880;" d="M988.897 610.826c-21.483-45.455-116.28-264.345-129.203-284.61-1.515-2.396-2.898-4.767-4.219-7-12.585-21.575-25.881-38.082-71.808-38.082H345.943c9.2-27.868 28.273-62.264 68.014-62.264H792.9c11.223 0 20.29-9.098 20.29-20.296s-9.067-20.29-20.29-20.29H413.962c-56.243 0-97.27 44.037-112.624 111.503-8.454 37.207-111.002 380.39-118.339 407.28-7.88 17.076-26.179 29.353-43.965 29.353H45.71c-11.197 0-20.29 9.099-20.29 20.291 0 11.197 9.098 20.26 20.29 20.26h93.317c34.801 0 67.64-1.859 81.782-34.837 0.369-0.875 0.676-1.72 0.947-2.667 4.025-14.746 89.053-316.268 113.3-407.788h448.605c26.317 0 28.954 4.506 36.767 17.966 1.592 2.699 3.215 5.469 5.043 8.351C837.509 366.9 931.599 584.51 951.66 626.821c8.355 21.883 6.83 33.792 4.53 37.171-1.52 2.161-6.358 3.482-12.984 3.482-43.965-0.64-601.144-0.03-620.487 0-11.223 0.03-20.29 9.098-20.26 20.29 0.03 11.229 9.093 20.26 20.29 20.26h0.031c4.767 0 576.215-0.676 620.15 0 26.726 0 40.146-11.468 46.746-21.104 12.139-17.685 11.868-43.32-0.779-76.094zM403.205 158.162c52.255 0 94.771-42.511 94.771-94.771 0-52.255-42.516-94.802-94.77-94.802s-94.767 42.547-94.767 94.802c0.03 52.219 42.511 94.77 94.766 94.77z m0-150.64c30.776 0 55.808 25.062 55.808 55.838s-25.032 55.803-55.808 55.803c-30.74 0-55.772-25.032-55.772-55.803 0-30.781 25.032-55.839 55.772-55.839zM788.772 158.162c52.255 0 94.771-42.511 94.771-94.771 0-52.255-42.516-94.802-94.771-94.802S694 11.136 694 63.39c0.035 52.219 42.516 94.77 94.77 94.77z m0-150.64c30.776 0 55.803 25.062 55.803 55.838s-25.032 55.803-55.803 55.803c-30.746 0-55.772-25.032-55.772-55.803 0-30.781 25.026-55.839 55.772-55.839z"  horiz-adv-x="1024" />

    
    <glyph glyph-name="lianjie1" unicode="&#58896;" d="M762.24 389.12a32 32 0 0 0-46.08 44.16l55.68 58.24a125.76 125.76 0 0 1-12.16 171.2c-48.32 50.24-119.68 54.72-160 12.48L444.16 512a125.76 125.76 0 0 1 12.16-171.2 32 32 0 0 0 0-45.12 32 32 0 0 0-45.44 0 189.44 189.44 0 0 0-12.16 259.52l155.52 162.24c66.88 69.76 180.48 64 252.8-12.8A189.44 189.44 0 0 0 818.24 448zM229.76 378.88a32 32 0 0 0 46.08-44.16l-55.68-58.24a125.76 125.76 0 0 1 12.16-171.2c48.32-50.24 119.68-54.72 160-12.48L547.84 256a125.76 125.76 0 0 1-12.16 171.2 32 32 0 0 0 0 45.12 32 32 0 0 0 45.44 0 189.44 189.44 0 0 0 12.16-259.52L437.76 50.56c-66.88-69.76-180.48-64-252.8 12.8A189.44 189.44 0 0 0 173.76 320z"  horiz-adv-x="1024" />

    
    <glyph glyph-name="xianshimima1" unicode="&#58944;" d="M90.624 349.184a51.2 51.2 0 0 0 4.096 75.264L353.28 657.92a236.544 236.544 0 0 0 317.44 0l258.56-233.472 4.608-4.608a51.2 51.2 0 0 0-5.632-75.264L665.6 118.784a236.544 236.544 0 0 0-307.2 0L95.744 344.064z m307.2-181.76a172.544 172.544 0 0 1 225.792 0L877.568 384 627.712 609.28a172.544 172.544 0 0 1-231.424 0L146.432 384zM512 249.344A134.656 134.656 0 1 0 646.656 384 134.656 134.656 0 0 0 512 249.344z m0 64A70.656 70.656 0 1 1 441.856 384 70.144 70.144 0 0 1 512 313.344z"  horiz-adv-x="1024" />

    
    <glyph glyph-name="jinenghui" unicode="&#59046;" d="M911.694699-128H547.537848c-24.485511 0-44.282307 19.796796-44.282306 44.282307v363.635882c0 24.485511 19.796796 44.282307 44.282306 44.282307h363.635883c24.485511 0 44.282307-19.796796 44.282307-44.282307V-83.717693c0.520968-23.964542-19.275828-44.282307-43.761339-44.282307zM547.537848 285.648841c-3.12581 0-5.209683-2.083873-5.209683-5.209683v-363.635883c0-3.12581 2.083873-5.209683 5.209683-5.209683h363.635883c3.12581 0 5.209683 2.083873 5.209683 5.209683v363.635883c0 3.12581-2.083873 5.209683-5.209683 5.209683H547.537848zM408.960277 324.721464H44.803426c-24.485511 0-44.282307-19.796796-44.282306-44.282306v-65.12104c0-10.940335 8.856461-19.796796 19.796795-19.796795 10.940335 0 19.796796 8.856461 19.796796 19.796795v65.12104c0 3.12581 2.083873 5.209683 5.209684 5.209683h364.15685c3.12581 0 5.209683-2.083873 5.209684-5.209683v-363.635883c0-3.12581-2.083873-5.209683-5.209684-5.209683h-364.677819c-3.12581 0-5.209683 2.083873-5.209683 5.209683v188.069561c0 10.940335-8.335493 19.796796-19.275828 19.796796h-0.520968c-10.940335 0-19.796796-8.856461-19.796796-19.796796v-188.069561c0-24.485511 19.796796-44.282307 44.282307-44.282307h363.635883c24.485511 0 44.282307 19.796796 44.282306 44.282307v363.635883c1.041937 24.485511-18.754859 44.282307-43.24037 44.282306zM408.960277 377.339264H44.803426C20.317915 377.339264 0.52112 397.13606 0.52112 421.62157V785.778421c0 24.485511 19.796796 44.282307 44.282306 44.282307h363.635883c24.485511 0 44.282307-19.796796 44.282306-44.282307V421.62157c0.520968-24.485511-19.275828-44.282307-43.761338-44.282306zM44.803426 790.988105c-3.12581 0-5.209683-2.083873-5.209683-5.209684V421.62157c0-3.12581 2.083873-5.209683 5.209683-5.209683h363.635883c3.12581 0 5.209683 2.083873 5.209683 5.209683V785.778421c0 3.12581-2.083873 5.209683-5.209683 5.209684H44.803426zM749.673554 329.410179c-10.419366 1.562905-19.796796 6.25162-26.569384 14.066144l-239.645424 238.603488c-16.670986 16.670986-16.670986 43.761338 0 60.432324l239.124456 239.124456c7.293556 7.293556 16.670986 12.50324 26.569384 14.066144 13.024208 1.562905 26.048416-3.12581 34.904877-11.982271l239.124455-239.124455c7.293556-7.293556 12.50324-16.670986 13.545177-27.090353 1.562905-13.024208-3.12581-26.048416-11.982272-34.904877l-240.68736-240.68736c-8.335493-9.898398-21.359701-14.066144-34.383909-12.50324z m4.688715 527.219933c-1.041937 0-1.562905-0.520968-2.604842-1.041937l-239.645424-239.645424c-2.083873-2.083873-2.083873-5.209683-0.520968-7.293556l0.520968-0.520968 238.082519-238.08252c2.083873-2.083873 5.209683-2.083873 7.293557 0l239.645424 239.645425c0.520968 0.520968 1.041937 1.562905 1.041936 2.604841s-0.520968 1.562905-1.041936 2.604842L756.96711 855.588175c-0.520968 0.520968-1.562905 1.041937-2.604841 1.041937z"  horiz-adv-x="1037" />

    
    <glyph glyph-name="diqiu" unicode="&#58886;" d="M512 896A512 512 0 1 1 1024 384 512.620606 512.620606 0 0 1 512 896zM992.969697 417.202424a1715.665455 1715.665455 0 0 0-189.595152-50.269091v18.307879a785.37697 785.37697 0 0 1-84.092121 367.088485c22.341818 7.13697 45.304242 15.515152 68.266667 25.134545A480.349091 480.349091 0 0 0 992.969697 417.202424zM574.681212-92.315152c-13.653333-1.861818-27.61697-3.10303-41.580606-3.723636v115.432727a775.757576 775.757576 0 0 0 142.429091-17.066666 242.036364 242.036364 0 0 0-100.848485-94.642425zM705.939394-3.878788c20.48-5.275152 40.96-11.481212 62.060606-18.307879a480.969697 480.969697 0 0 0-119.156364-53.992727A361.50303 361.50303 0 0 1 705.939394-3.878788z m-346.298182 6.206061a752.795152 752.795152 0 0 0 142.429091 17.066666V-96.969697q-18.618182 0-37.236364 1.861818a243.277576 243.277576 0 0 0-105.192727 97.435152z m31.030303-83.471515a496.484848 496.484848 0 0 0-130.947879 55.854545c23.272727 8.067879 46.235152 14.584242 69.197576 20.48a360.261818 360.261818 0 0 1 62.370909-76.334545z m-126.913939 465.454545a758.070303 758.070303 0 0 0 80.678788 358.089697 637.672727 637.672727 0 0 1 157.013333-24.513939v-382.603637a1370.918788 1370.918788 0 0 0-237.071515 19.859394c0.310303 9.929697 0 19.859394 0 30.099394zM459.248485 861.866667c13.963636 1.551515 28.547879 2.172121 42.821818 2.482424v-114.812121A589.575758 589.575758 0 0 0 361.50303 771.878788a243.898182 243.898182 0 0 0 97.745455 89.987879z m-127.224243-82.850909q-29.168485 9.309091-59.578181 21.410909a484.38303 484.38303 0 0 0 115.432727 47.786666 353.124848 353.124848 0 0 1-55.854546-69.197575z m341.333334-8.688485a606.642424 606.642424 0 0 0-140.877576-20.790303V864.969697c16.446061 0 31.030303-2.482424 48.09697-4.654545a248.242424 248.242424 0 0 0 93.401212-89.987879zM651.636364 843.869091a471.660606 471.660606 0 0 0 103.641212-46.235152c-17.687273-6.826667-35.064242-13.032727-52.441212-18.618181A355.29697 355.29697 0 0 1 651.636364 843.869091z m-155.151516-540.237576h4.344243v-251.96606a810.201212 810.201212 0 0 1-159.495758-20.169697 723.006061 723.006061 0 0 0-76.024242 291.684848 1396.363636 1396.363636 0 0 1 231.175757-19.549091z m35.374546-251.96606v252.896969a1505.900606 1505.900606 0 0 1 236.140606 24.51394 729.832727 729.832727 0 0 0-76.644848-297.890909 788.169697 788.169697 0 0 1-158.254546 20.48z m0 284.237575V718.81697a635.500606 635.500606 0 0 1 157.013333 24.513939 758.070303 758.070303 0 0 0 80.989091-358.089697v-24.203636a1527.001212 1527.001212 0 0 0-236.761212-25.134546zM240.484848 780.567273c25.444848-10.860606 50.889697-20.48 75.71394-28.547879a783.204848 783.204848 0 0 1-82.850909-366.778182v-24.203636a1360.678788 1360.678788 0 0 0-201.076364 55.233939A481.28 481.28 0 0 0 240.484848 780.567273zM31.030303 383.689697a1438.564848 1438.564848 0 0 1 204.179394-54.923636 759.311515 759.311515 0 0 1 77.575758-304.717576c-27.927273-7.447273-56.475152-16.446061-85.023031-26.996364A479.107879 479.107879 0 0 0 31.030303 383.689697z m768.930909-384.155152c-26.065455 9.619394-52.130909 17.687273-77.575757 24.51394a764.586667 764.586667 0 0 1 78.196363 310.30303 1742.041212 1742.041212 0 0 1 192.387879 50.889697 480.659394 480.659394 0 0 0-193.008485-385.706667z"  horiz-adv-x="1024" />

    
    <glyph glyph-name="xiaoshi" unicode="&#58899;" d="M1034.24-117.76c-20.48 0-38.4 17.92-38.4 38.4s17.92 38.4 38.4 38.4C1269.76-40.96 1459.2 151.04 1459.2 384S1269.76 808.96 1034.24 808.96 609.28 616.96 609.28 384c0-20.48-17.92-38.4-38.4-38.4s-38.4 17.92-38.4 38.4C532.48 660.48 757.76 885.76 1034.24 885.76S1536 660.48 1536 384s-225.28-501.76-501.76-501.76zM1264.64 345.6h-230.4c-20.48 0-38.4 17.92-38.4 38.4V716.8c0 20.48 17.92 38.4 38.4 38.4s38.4-17.92 38.4-38.4v-294.4h192c20.48 0 38.4-17.92 38.4-38.4s-17.92-38.4-38.4-38.4zM135.68 15.36c-5.12-7.68-7.68-15.36-12.8-20.48-5.12-5.12-7.68-7.68-15.36-7.68-10.24 0-17.92 5.12-17.92 12.8 0 10.24 0 17.92 5.12 25.6l248.32 540.16H58.88c-20.48 0-30.72 7.68-30.72 20.48s10.24 20.48 30.72 20.48h294.4c23.04 0 33.28-7.68 33.28-25.6 0-7.68-2.56-15.36-5.12-25.6-40.96-92.16-81.92-181.76-122.88-271.36s-81.92-176.64-122.88-268.8zM107.52-38.4c-23.04 0-40.96 15.36-43.52 38.4 0 12.8 2.56 25.6 7.68 38.4l230.4 501.76H58.88C17.92 540.16 2.56 563.2 2.56 586.24s15.36 46.08 56.32 46.08h294.4c43.52 0 58.88-25.6 58.88-51.2 0-10.24-2.56-23.04-7.68-35.84L158.72 5.12c-5.12-10.24-10.24-20.48-15.36-25.6-7.68-12.8-20.48-17.92-35.84-17.92zM826.88 20.48c0-5.12-5.12-7.68-12.8-7.68h-110.08c-2.56 0-5.12 0-7.68 2.56l-5.12 5.12v7.68c0 2.56 2.56 5.12 5.12 7.68l30.72 30.72c12.8 12.8 23.04 23.04 33.28 35.84 10.24 12.8 17.92 25.6 25.6 40.96 7.68 12.8 10.24 28.16 10.24 43.52 0 15.36-5.12 28.16-12.8 35.84-7.68 10.24-17.92 12.8-33.28 12.8-7.68 0-15.36-2.56-20.48-5.12-5.12-2.56-10.24-7.68-12.8-12.8-2.56-5.12-5.12-10.24-7.68-17.92-2.56-7.68-2.56-15.36-2.56-23.04 0-5.12 0-7.68-2.56-10.24-2.56-2.56-2.56-2.56-7.68-2.56-2.56 0-5.12 0-7.68 2.56 0 2.56-2.56 5.12-2.56 10.24 0 23.04 5.12 40.96 15.36 53.76 10.24 12.8 25.6 17.92 46.08 17.92s35.84-5.12 46.08-17.92 15.36-28.16 15.36-46.08c0-10.24-2.56-17.92-5.12-28.16-2.56-10.24-7.68-17.92-12.8-28.16-5.12-10.24-10.24-17.92-15.36-25.6-5.12-7.68-12.8-17.92-17.92-25.6-12.8-15.36-28.16-30.72-43.52-46.08-2.56-2.56 0-7.68 2.56-7.68h92.16c12.8 7.68 17.92 5.12 17.92-2.56zM814.08 0h-110.08c-5.12 0-10.24 2.56-12.8 5.12-5.12 2.56-7.68 7.68-10.24 10.24-2.56 5.12-2.56 10.24 0 15.36 0 5.12 5.12 10.24 7.68 12.8 7.68 10.24 20.48 20.48 30.72 30.72 10.24 10.24 23.04 23.04 30.72 35.84 10.24 12.8 17.92 25.6 25.6 38.4 5.12 12.8 10.24 25.6 10.24 35.84 0 12.8-2.56 20.48-7.68 28.16-5.12 5.12-12.8 10.24-23.04 10.24-5.12 0-10.24 0-15.36-2.56-2.56-2.56-7.68-5.12-10.24-7.68-2.56-2.56-5.12-7.68-5.12-12.8-2.56-5.12-2.56-12.8-2.56-20.48 0-7.68-2.56-12.8-5.12-17.92-2.56-5.12-10.24-7.68-17.92-7.68-10.24 0-15.36 5.12-17.92 7.68-2.56 5.12-2.56 10.24-2.56 17.92 0 25.6 5.12 46.08 17.92 61.44 12.8 15.36 33.28 23.04 56.32 23.04 23.04 0 40.96-7.68 53.76-20.48s20.48-33.28 20.48-56.32c0-10.24-2.56-20.48-5.12-30.72-2.56-10.24-7.68-20.48-12.8-30.72-5.12-10.24-10.24-17.92-17.92-28.16-5.12-10.24-12.8-17.92-20.48-25.6-7.68-10.24-17.92-20.48-28.16-30.72h69.12c17.92 0 25.6-10.24 25.6-20.48 2.56-7.68-5.12-20.48-23.04-20.48z m-107.52 28.16c0-2.56-2.56-2.56-2.56-2.56h2.56c2.56 0 2.56 0 0 2.56zM993.28 10.24c-2.56 0-5.12 0-5.12 2.56s-2.56 5.12-2.56 7.68v48.64h-102.4c-7.68 0-10.24 2.56-12.8 5.12-2.56 5.12 0 10.24 5.12 15.36l94.72 148.48c2.56 5.12 7.68 10.24 10.24 12.8 2.56 2.56 5.12 2.56 10.24 2.56s7.68-2.56 10.24-5.12c2.56-2.56 2.56-7.68 2.56-17.92v-148.48h17.92c7.68 0 10.24-2.56 10.24-7.68 0-5.12-2.56-7.68-10.24-7.68h-17.92v-48.64c0-5.12 0-7.68-2.56-7.68h-7.68z m-7.68 74.24V230.4c0 2.56-2.56 2.56-2.56 0l-84.48-133.12c-5.12-5.12 0-15.36 7.68-15.36h79.36zM993.28-2.56c-10.24 0-15.36 5.12-15.36 7.68-2.56 5.12-5.12 7.68-5.12 15.36v35.84h-89.6c-17.92 0-23.04 10.24-23.04 15.36-2.56 7.68 0 17.92 5.12 25.6l94.72 148.48c5.12 7.68 7.68 12.8 12.8 15.36 5.12 5.12 10.24 5.12 17.92 5.12 12.8 0 17.92-7.68 20.48-10.24 2.56-5.12 5.12-12.8 5.12-23.04v-135.68h5.12c15.36 0 23.04-10.24 23.04-20.48s-7.68-20.48-23.04-20.48h-5.12v-35.84c0-7.68-2.56-12.8-5.12-15.36-5.12-5.12-7.68-7.68-17.92-7.68z m0 25.6v-12.8 12.8z m0 0v-12.8 12.8z m-110.08 58.88h5.12v2.56 2.56-2.56c-2.56-2.56-5.12-2.56-5.12-2.56z m30.72 15.36H972.8v94.72l-58.88-94.72zM563.2 30.72c-10.24 0-20.48 2.56-28.16 10.24l-145.92 145.92c-15.36 15.36-15.36 38.4 0 53.76 15.36 15.36 38.4 15.36 53.76 0l145.92-145.92c15.36-15.36 15.36-38.4 0-53.76-5.12-7.68-15.36-10.24-25.6-10.24zM417.28 30.72c-10.24 0-20.48 2.56-28.16 10.24-15.36 15.36-15.36 38.4 0 53.76l145.92 145.92c15.36 15.36 38.4 15.36 53.76 0s15.36-38.4 0-53.76l-145.92-145.92c-5.12-7.68-15.36-10.24-25.6-10.24z"  horiz-adv-x="1536" />

    
    <glyph glyph-name="liaotian" unicode="&#58891;" d="M695.728 46.784c-2.992 0.018-5.84-0.477-8.328-1.5h-0.085c-1.986-0.827-3.888-2.148-5.54-3.963L559.462-93.011a63.68 63.68 0 0 0-4.21-4.203c-11.354-10.143-26.117-15.291-40.726-15.308-14.678-0.017-29.458 5.08-40.828 15.411l-0.162 0.17c-1.155 1.074-2.472 2.421-3.98 4.091L351.184 39.318c-1.402 1.551-3.192 2.71-5.2 3.46-2.898 1.109-6.222 1.68-9.657 1.833h-0.081c-32.105 1.543-55.118 1.645-79.743 1.722h-0.08c-31.479 0.111-65.627 0.264-120.724 3.111v-0.033c-30.016 0-57.368 12.359-77.19 32.15l-0.05-0.042c-19.8 19.8-32.11 47.162-32.11 77.232V758.857c0 29.999 12.322 57.355 32.11 77.156l0.05 0.034 0.034 0.047c19.805 19.788 47.158 32.104 77.156 32.104h763.07c30.087 0 57.432-12.299 77.24-32.104l-0.051-0.047c19.8-19.822 32.151-47.17 32.151-77.19V158.75c0-30.072-12.291-57.432-32.1-77.232-19.808-19.8-47.153-32.109-77.24-32.109v0.07c-48.841-0.955-90.76-1.629-123.968-2.072-40.691-0.546-68.034-0.725-79.073-0.623z m72.17 448.988c-23.082 0-41.783-18.7-41.783-41.778 0-23.073 18.7-41.778 41.782-41.778 23.082 0 41.783 18.705 41.783 41.778 0 23.078-18.701 41.778-41.783 41.778z m-250.662 0c-23.077 0-41.778-18.7-41.778-41.778 0-23.073 18.7-41.778 41.778-41.778 23.073 0 41.774 18.705 41.774 41.778 0 23.078-18.701 41.778-41.774 41.778z m-250.666 0c-23.073 0-41.774-18.7-41.774-41.778 0-23.073 18.701-41.778 41.774-41.778 23.077 0 41.778 18.705 41.778 41.778 0 23.078-18.7 41.778-41.778 41.778z m404.857-412.004l-0.017 0.042c7.62 3.154 15.99 4.646 24.65 4.577 10.75-0.076 37.794 0.094 78.247 0.622 32.697 0.434 74.53 1.125 124.052 2.097l0.41 0.076c18.555 0 35.44 7.62 47.698 19.869 12.256 12.256 19.868 29.15 19.868 47.698V758.857c0 18.603-7.577 35.514-19.783 47.698h-0.085c-12.257 12.253-29.143 19.869-47.699 19.869H135.7c-18.603 0-35.51-7.581-47.702-19.788l-0.081-0.08c-12.202-12.185-19.784-29.096-19.784-47.699V158.75c0-18.547 7.616-35.44 19.865-47.69v-0.093c12.193-12.198 29.1-19.775 47.702-19.775l1.053-0.085c55.94-2.915 89.166-3.06 119.757-3.154h0.085c25.656-0.103 49.65-0.205 81.625-1.74 7.83-0.374 15.514-1.704 22.6-4.414 8.009-3.06 15.344-7.8 21.544-14.754l-0.047-0.043 118.261-132.116 1.185-1.142c3.418-3.103 8.089-4.654 12.764-4.654 4.751 0 9.504 1.619 12.99 4.722l1.218 1.202-0.051 0.034L650.92 69.379c5.856 6.411 12.786 11.176 20.508 14.389z"  horiz-adv-x="1024" />

    
    <glyph glyph-name="huoche1-copy" unicode="&#59287;" d="M573.76512 130.07701333L349.99296 130.07701333l0 17.97376c0 46.82368-38.11968 85.02656-85.06752 85.02656-46.87488 0-85.02528-38.20288-85.02528-85.02656l0-17.97376-120.8704 0C26.4576 130.07701333 0 156.60885333 0 189.11701332999996L0 724.43477333c0 32.50304 26.4576 58.99264 59.02976 58.99264l514.73536 0c32.54016 0 59.06304-26.4896 59.06304-58.99264l0-535.31776C632.82688 156.60885333 606.30528 130.07701333 573.76512 130.07701333L573.76512 130.07701333zM384.45056 165.89909333000003l189.31456 0c12.85888 0 23.28192 10.42432 23.28192 23.21792L597.04704 724.43477333c0 12.8448-10.42432 23.26912-23.28192 23.26912L59.02976 747.70389333c-12.79488 0-23.28064-10.42432-23.28064-23.26912l0-535.31776c0-12.7936 10.48448-23.21792 23.28064-23.21792l86.4 0c8.61952 58.1376 58.99776 102.9056 119.4944 102.9056C325.4848 268.80469332999996 375.74784 224.03669333000005 384.45056 165.89909333000003L384.45056 165.89909333000003zM964.93952 130.07701333l-79.62496 0 0 17.97376c0 46.82368-38.2144 85.02656-85.07008 85.02656-46.96704 0-85.05472-38.20288-85.05472-85.02656l0-17.97376-59.09248 0c-32.49792 0-59.05024 26.53184-59.05024 59.04l0 391.168c0 32.65536 26.55232 59.05536 59.05024 59.05536L831.1296 639.3403733299999c9.02016 0 23.33312-3.7376 54.02752-32.7744 18.00448-16.95744 39.34464-40.47872 60.22528-66.20288 20.78208-25.69728 39.76448-52.06656 53.41696-74.20928C1021.36704 429.60213333 1024 413.97205333 1024 405.28853333l0-216.17152C1024 156.60885333 997.5104 130.07701333 964.93952 130.07701333L964.93952 130.07701333zM919.74272 165.89909333000003l45.19808 0c12.8256 0 23.31008 10.42432 23.31008 23.21792L988.25088 405.28853333c0 0.4608-0.22016 9.94176-18.80064 40.352-12.2304 20.14464-29.61536 44.40064-48.81536 68.37888-19.07584 23.97696-38.88512 46.11968-55.81056 62.55232-23.2704 22.66112-32.72064 26.55744-34.42944 27.07584l-174.2976 0c-12.81536 0-23.2704-10.54848-23.2704-23.36384l0-391.168c0-12.7936 10.45504-23.21792 23.2704-23.21792l24.6528 0c8.6528 58.1376 58.93504 102.9056 119.4944 102.9056C860.7232 268.80469332999996 911.03744 224.03669333000005 919.74272 165.89909333000003L919.74272 165.89909333000003zM1024 356.56789332999995L779.7056 356.56789332999995c-32.65792 0-59.0848 26.4576-59.0848 58.99776l0 82.35648c0 32.56576 26.42688 59.05664 59.0848 59.05664l151.87456 0 5.3696-6.31424C951.54688 533.1259733300001 1024 444.19925333 1024 405.28853333L1024 356.56789332999995 1024 356.56789332999995zM779.7056 521.25525333c-12.91008 0-23.4304-10.45632-23.4304-23.33312l0-82.35648c0-12.76288 10.52032-23.24864 23.4304-23.24864L988.2496 392.31701333l0 12.97152c0 0.5248-0.22016 11.22176-22.69184 46.57664-13.4336 21.1264-31.2832 45.56544-50.74432 69.39136L779.7056 521.25653333 779.7056 521.25525333zM800.24448 27.24437333000003c-66.6304 0-120.86784 54.11072-120.86784 120.8064 0 66.54848 54.23744 120.75392 120.86784 120.75392 66.63552 0 120.7872-54.20544 120.7872-120.75392C921.03296 81.35637333 866.88 27.24437333000003 800.24448 27.24437333000003L800.24448 27.24437333000003zM800.24448 233.07733333c-46.96704 0-85.05472-38.20288-85.05472-85.02656 0-46.9376 38.08768-85.15072 85.05472-85.15072 46.8544 0 85.07008 38.21312 85.07008 85.15072C885.31456 194.87445333000005 847.10016 233.07733333 800.24448 233.07733333L800.24448 233.07733333zM264.92544 27.24437333000003c-66.63296 0-120.8064 54.11072-120.8064 120.8064 0 66.54848 54.17344 120.75392 120.8064 120.75392 66.6624 0 120.78464-54.20544 120.78464-120.75392C385.71008 81.35637333 331.58784 27.24437333000003 264.92544 27.24437333000003L264.92544 27.24437333000003zM264.92544 233.07733333c-46.90688 0-85.02528-38.20288-85.02528-85.02656 0-46.9376 38.1504-85.15072 85.02528-85.15072 46.94784 0 85.06752 38.21312 85.06752 85.15072C349.99296 194.87445333000005 311.872 233.07733333 264.92544 233.07733333L264.92544 233.07733333zM264.92544 233.07733333"  horiz-adv-x="1024" />

    
    <glyph glyph-name="buchangxinghuifu" unicode="&#58882;" d="M602.24 143.36h179.2a12.16 12.16 0 0 0 12.8-13.44 12.8 12.8 0 0 0-12.8-13.44H632.96l16.64-17.28a13.44 13.44 0 0 0 0-18.56 12.16 12.16 0 0 0-17.92 0l-35.84 37.12a19.2 19.2 0 0 0-6.4 10.24 12.16 12.16 0 0 0 12.8 15.36z m25.6 373.76a141.44 141.44 0 1 1-282.24 0 144 144 0 0 1 140.8-147.2 144 144 0 0 1 141.44 147.2z m38.4-213.76a13.44 13.44 0 0 0-12.8-13.44 7.68 7.68 0 0 0-5.12 0 236.16 236.16 0 0 1-341.12-44.8 261.12 261.12 0 0 1-49.92-128H256a12.8 12.8 0 0 0-25.6 0 10.24 10.24 0 0 0 0 7.04A275.84 275.84 0 0 0 421.12 358.4a176.64 176.64 0 0 0-87.04 227.84 165.12 165.12 0 0 0 219.52 90.88A177.28 177.28 0 0 0 640 448a166.4 166.4 0 0 0-77.44-84.48 268.16 268.16 0 0 0 96-46.72l6.4-3.84v-7.04z m128-93.44a7.68 7.68 0 0 0 0-5.12h-192a12.8 12.8 0 0 0-12.8 13.44 12.16 12.16 0 0 0 12.8 13.44h148.48l-14.08 14.72a13.44 13.44 0 0 0 0 18.56 11.52 11.52 0 0 0 17.92 0l35.84-37.12a12.16 12.16 0 0 0 3.84-9.6zM512 857.6A473.6 473.6 0 1 0 38.4 384 474.24 474.24 0 0 0 512 857.6M512 896a512 512 0 1 1 512-512 512 512 0 0 1-512 512z"  horiz-adv-x="1024" />

    
    <glyph glyph-name="zhinengwenda" unicode="&#58885;" d="M1011.467048 541.444432a403.834952 403.834952 0 0 1-114.558568 204.157448 518.39352 518.39352 0 0 1-197.757528 127.9984A440.314496 440.314496 0 0 1 486.033616 889.60008a531.19336 531.19336 0 0 1-197.117536-76.159048 486.39392 486.39392 0 0 1-144.638192-151.678104 823.029712 823.029712 0 0 1-71.679104-136.318296 113.278584 113.278584 0 0 1 12.79984-111.9986 56.319296 56.319296 0 0 0-3.19996-12.159848 148.478144 148.478144 0 0 0-12.79984-28.79964c-5.119936-10.239872-11.519856-23.039712-16.639792-35.839552a391.035112 391.035112 0 0 0-34.559568-63.9992 67.19916 67.19916 0 0 1-14.719816-51.19936c3.19996-28.159648 41.59948-35.19956 72.959088-40.319496h12.79984a94.718816 94.718816 0 0 0 0-27.519656l-5.119936-3.839952c-7.679904-5.759928-19.839752-14.079824-17.919776-28.79964a33.279584 33.279584 0 0 1 15.9998-23.039712 54.39932 54.39932 0 0 1-5.759928-14.079824 31.359608 31.359608 0 0 1 14.079824-32.639592 37.759528 37.759528 0 0 0 5.119936-5.119936 31.9996 31.9996 0 0 0-3.19996-8.319896 85.758928 85.758928 0 0 1 0-74.879064c12.159848-24.319696 48.639392-34.559568 115.19856-33.919576A724.470944 724.470944 0 0 1 320.91568-63.988a170.237872 170.237872 0 0 0 28.79964 3.19996v-24.319696c0-28.159648 4.479944-32.639592 7.679904-36.479544a18.559768 18.559768 0 0 1 14.719816-6.39992h447.9944v23.039712a447.9944 447.9944 0 0 0 3.839952 49.919376l-12.79984-3.839952 12.79984 3.839952a213.757328 213.757328 0 0 1-10.239872 67.839152 138.238272 138.238272 0 0 0 38.39952 116.478544c8.319896 10.239872 19.839752 21.119736 31.9996 33.279584a337.915776 337.915776 0 0 1 94.078824 124.158448l9.59988 25.59968v5.759928a331.515856 331.515856 0 0 1 23.679704 223.357208z m-232.317096-537.59328a167.677904 167.677904 0 0 0 8.959888-56.959288v-4.479944a237.437032 237.437032 0 0 1 0-31.9996h-403.19496a299.516256 299.516256 0 0 0 0 35.839552 26.239672 26.239672 0 0 1-7.039912 21.119736c-10.879864 10.879864-31.359608 12.79984-67.839152 5.759928a703.9912 703.9912 0 0 0-101.758728-9.59988c-60.159248 0-78.719016 8.959888-80.638992 12.79984a51.19936 51.19936 0 0 0 0 43.519456 46.079424 46.079424 0 0 1 0 35.839552 51.19936 51.19936 0 0 1-15.359808 19.839752v3.19996h8.959888v12.79984a21.119736 21.119736 0 0 1-13.439832 23.039712l-5.119936 3.839952a37.119536 37.119536 0 0 1 12.79984 17.919776s12.159848 63.9992-23.679704 75.519056l-18.559768 3.19996a290.556368 290.556368 0 0 0-33.919576 7.679904 22.39972 22.39972 0 0 0-7.679904 3.19996 29.439632 29.439632 0 0 0 8.319896 21.759728A416.634792 416.634792 0 0 1 89.238576 320.0072c4.479944 12.159848 10.879864 24.319696 15.359808 33.919576a255.9968 255.9968 0 0 1 15.9998 36.479544 45.439432 45.439432 0 0 1-4.479944 45.439432A74.879064 74.879064 0 0 0 107.798344 512.0048a613.112336 613.112336 0 0 0 201.59748 269.436632 447.9944 447.9944 0 0 0 379.515256 56.319296 447.9944 447.9944 0 0 0 285.436432-303.356208 300.156248 300.156248 0 0 0-13.439832-202.237472c-4.479944-10.239872-8.959888-21.119736-12.79984-32.639592A300.156248 300.156248 0 0 0 860.428936 192.0088c-12.159848-11.519856-23.679704-23.039712-33.279584-33.919576a171.517856 171.517856 0 0 1-47.9994-154.238072zM683.791144 659.20296h40.959488v-357.115536h-40.959488zM411.794544 436.485744h137.59828L482.193664 615.043512z m45.439432 222.717216h47.359408l140.79824-357.115536h-44.79944l-37.759528 99.838752H398.354712l-37.759528-99.838752h-44.159448z"  horiz-adv-x="1024" />

    
    <glyph glyph-name="fensi" unicode="&#58920;" d="M472.734 318.375c-147.68 0-267.856 120.152-267.856 267.856 0 147.705 120.176 267.856 267.856 267.856s267.857-120.151 267.857-267.856c0.001-147.704-120.177-267.856-267.857-267.856z m0 510.203c-133.629 0-242.346-108.717-242.346-242.347 0-133.629 108.717-242.346 242.346-242.346s242.347 108.717 242.347 242.346c0 133.63-108.718 242.347-242.347 242.347zM520.765-10.316h51.021v-25.511h-51.021zM490.995-35.827H200.718c-44.319 0-79.021 22.422-79.021 51.021v62.305c0 146.883 153.783 266.387 342.792 266.387v-25.511c-174.958 0-317.282-108.044-317.282-240.876l0.175-4.559-0.448-2.84 0.273-54.906c0-12.033 22.895-25.511 53.512-25.511h290.277v-25.51zM729.28-35.827c-5.48 0-10.612 2.118-14.449 5.979L575.224 109.735c-24.813 22.297-39.312 54.732-39.312 88.563 0 66.018 53.711 119.729 119.703 119.729 27.055 0 52.938-9.068 74.039-25.76 20.403 14.873 44.991 22.969 70.377 22.969 66.018 0 119.728-53.711 119.728-119.703 0-33.482-13.552-64.572-38.19-87.542l-137.84-137.839c-3.885-3.861-9.018-5.979-14.449-5.979z m-73.665 328.344c-51.941 0-94.192-42.276-94.192-94.218 0-26.606 11.408-52.142 31.34-70.054L729.28-8.224l134.576 134.576c19.729 18.385 30.394 42.849 30.394 69.181 0 51.941-42.252 94.193-94.219 94.193-22.919 0-45.042-8.396-62.256-23.617l-8.769-7.747-8.495 8.071c-17.638 16.816-40.656 26.084-64.896 26.084z"  horiz-adv-x="1024" />

    


  </font>
</defs>
</svg>
